<svg height="576" viewBox="0 0 576 432" width="768" xmlns="http://www.w3.org/2000/svg" xmlns:xlink="http://www.w3.org/1999/xlink"><g id="figure_1"><path d="M0 432h576V0H0z" fill="none" id="patch_1"/><g id="axes_1"><path d="M56.454 381.24h499.892V21.33H56.454z" fill="none" id="patch_2"/><path clip-path="url(#pc196d96ac3)" d="M56.454 15857.4h9.997-9.996z" fill="green" opacity=".5" stroke="#000" id="patch_3"/><path clip-path="url(#pc196d96ac3)" d="M66.45 15857.4h10-10z" fill="green" opacity=".5" stroke="#000" id="patch_4"/><path clip-path="url(#pc196d96ac3)" d="M76.45 15857.4h9.997-9.998z" fill="green" opacity=".5" stroke="#000" id="patch_5"/><path clip-path="url(#pc196d96ac3)" d="M86.447 15857.4h9.998-9.998z" fill="green" opacity=".5" stroke="#000" id="patch_6"/><path clip-path="url(#pc196d96ac3)" d="M96.445 15857.4h9.998-9.998z" fill="green" opacity=".5" stroke="#000" id="patch_7"/><path clip-path="url(#pc196d96ac3)" d="M106.443 15857.4h9.998-9.997z" fill="green" opacity=".5" stroke="#000" id="patch_8"/><path clip-path="url(#pc196d96ac3)" d="M116.44 15857.4h10-10z" fill="green" opacity=".5" stroke="#000" id="patch_9"/><path clip-path="url(#pc196d96ac3)" d="M126.44 15857.4h9.997-9.998z" fill="green" opacity=".5" stroke="#000" id="patch_10"/><path clip-path="url(#pc196d96ac3)" d="M136.437 15857.4h9.997-9.997z" fill="green" opacity=".5" stroke="#000" id="patch_11"/><path clip-path="url(#pc196d96ac3)" d="M146.434 15857.4h9.998V190.868h-9.998z" fill="green" opacity=".5" stroke="#000" id="patch_12"/><path clip-path="url(#pc196d96ac3)" d="M156.432 15857.4h9.998V97.19h-9.998z" fill="green" opacity=".5" stroke="#000" id="patch_13"/><path clip-path="url(#pc196d96ac3)" d="M166.43 15857.4h9.998V65.8h-9.998z" fill="green" opacity=".5" stroke="#000" id="patch_14"/><path clip-path="url(#pc196d96ac3)" d="M176.428 15857.4h9.998V44.09h-9.998z" fill="green" opacity=".5" stroke="#000" id="patch_15"/><path clip-path="url(#pc196d96ac3)" d="M186.426 15857.4h9.998V49.877h-9.998z" fill="green" opacity=".5" stroke="#000" id="patch_16"/><path clip-path="url(#pc196d96ac3)" d="M196.424 15857.4h9.997V101.87h-9.996z" fill="green" opacity=".5" stroke="#000" id="patch_17"/><path clip-path="url(#pc196d96ac3)" d="M206.42 15857.4h10V150.504h-10z" fill="green" opacity=".5" stroke="#000" id="patch_18"/><path clip-path="url(#pc196d96ac3)" d="M216.42 15857.4h9.997V180.68h-9.998z" fill="green" opacity=".5" stroke="#000" id="patch_19"/><path clip-path="url(#pc196d96ac3)" d="M226.417 15857.4h9.998V188.338h-9.998z" fill="green" opacity=".5" stroke="#000" id="patch_20"/><path clip-path="url(#pc196d96ac3)" d="M236.415 15857.4h9.998V195.53h-9.998z" fill="green" opacity=".5" stroke="#000" id="patch_21"/><path clip-path="url(#pc196d96ac3)" d="M246.413 15857.4h9.998V209.776h-9.997z" fill="green" opacity=".5" stroke="#000" id="patch_22"/><path clip-path="url(#pc196d96ac3)" d="M256.41 15857.4h10V230.78h-10z" fill="green" opacity=".5" stroke="#000" id="patch_23"/><path clip-path="url(#pc196d96ac3)" d="M266.41 15857.4h9.996V254.557h-9.997z" fill="green" opacity=".5" stroke="#000" id="patch_24"/><path clip-path="url(#pc196d96ac3)" d="M276.406 15857.4h9.998V265.533h-9.998z" fill="green" opacity=".5" stroke="#000" id="patch_25"/><path clip-path="url(#pc196d96ac3)" d="M286.404 15857.4h9.998V261.11h-9.998z" fill="green" opacity=".5" stroke="#000" id="patch_26"/><path clip-path="url(#pc196d96ac3)" d="M296.402 15857.4h9.998V248.133h-9.998z" fill="green" opacity=".5" stroke="#000" id="patch_27"/><path clip-path="url(#pc196d96ac3)" d="M306.4 15857.4h9.998V249.744H306.4z" fill="green" opacity=".5" stroke="#000" id="patch_28"/><path clip-path="url(#pc196d96ac3)" d="M316.398 15857.4h9.998V242.74h-9.998z" fill="green" opacity=".5" stroke="#000" id="patch_29"/><path clip-path="url(#pc196d96ac3)" d="M326.396 15857.4h9.998V227.015h-9.998z" fill="green" opacity=".5" stroke="#000" id="patch_30"/><path clip-path="url(#pc196d96ac3)" d="M336.394 15857.4h9.997V216.22h-9.996z" fill="green" opacity=".5" stroke="#000" id="patch_31"/><path clip-path="url(#pc196d96ac3)" d="M346.39 15857.4h10V214.766h-10z" fill="green" opacity=".5" stroke="#000" id="patch_32"/><path clip-path="url(#pc196d96ac3)" d="M356.39 15857.4h9.997V243.336h-9.998z" fill="green" opacity=".5" stroke="#000" id="patch_33"/><path clip-path="url(#pc196d96ac3)" d="M366.387 15857.4h9.998V277.966h-9.998z" fill="green" opacity=".5" stroke="#000" id="patch_34"/><path clip-path="url(#pc196d96ac3)" d="M376.385 15857.4h9.998V317.976h-9.998z" fill="green" opacity=".5" stroke="#000" id="patch_35"/><path clip-path="url(#pc196d96ac3)" d="M386.383 15857.4h9.998V356.708h-9.997z" fill="green" opacity=".5" stroke="#000" id="patch_36"/><path clip-path="url(#pc196d96ac3)" d="M396.38 15857.4h9.998V365.762h-9.997z" fill="green" opacity=".5" stroke="#000" id="patch_37"/><path clip-path="url(#pc196d96ac3)" d="M406.378 15857.4h9.998V350.285h-9.998z" fill="green" opacity=".5" stroke="#000" id="patch_38"/><path clip-path="url(#pc196d96ac3)" d="M416.376 15857.4h9.998V381.24h-9.998z" fill="green" opacity=".5" stroke="#000" id="patch_39"/><path clip-path="url(#pc196d96ac3)" d="M426.374 15857.4h9.998V381.24h-9.998z" fill="green" opacity=".5" stroke="#000" id="patch_40"/><path clip-path="url(#pc196d96ac3)" d="M436.372 15857.4h9.998V381.24h-9.998z" fill="green" opacity=".5" stroke="#000" id="patch_41"/><path clip-path="url(#pc196d96ac3)" d="M446.37 15857.4h9.998V365.762h-9.998z" fill="green" opacity=".5" stroke="#000" id="patch_42"/><path clip-path="url(#pc196d96ac3)" d="M456.368 15857.4h9.998V365.762h-9.998z" fill="green" opacity=".5" stroke="#000" id="patch_43"/><path clip-path="url(#pc196d96ac3)" d="M466.366 15857.4h9.997V345.302h-9.997z" fill="green" opacity=".5" stroke="#000" id="patch_44"/><path clip-path="url(#pc196d96ac3)" d="M476.363 15857.4h9.998V317.976h-9.997z" fill="green" opacity=".5" stroke="#000" id="patch_45"/><path clip-path="url(#pc196d96ac3)" d="M486.36 15857.4h10V297.78h-10z" fill="green" opacity=".5" stroke="#000" id="patch_46"/><path clip-path="url(#pc196d96ac3)" d="M496.36 15857.4h9.997V323.966h-9.998z" fill="green" opacity=".5" stroke="#000" id="patch_47"/><path clip-path="url(#pc196d96ac3)" d="M56.454 15857.4h9.997-9.996z" fill="red" opacity=".5" stroke="#000" id="patch_48"/><path clip-path="url(#pc196d96ac3)" d="M66.45 15857.4h10-10z" fill="red" opacity=".5" stroke="#000" id="patch_49"/><path clip-path="url(#pc196d96ac3)" d="M76.45 15857.4h9.997-9.998z" fill="red" opacity=".5" stroke="#000" id="patch_50"/><path clip-path="url(#pc196d96ac3)" d="M86.447 15857.4h9.998-9.998z" fill="red" opacity=".5" stroke="#000" id="patch_51"/><path clip-path="url(#pc196d96ac3)" d="M96.445 15857.4h9.998-9.998z" fill="red" opacity=".5" stroke="#000" id="patch_52"/><path clip-path="url(#pc196d96ac3)" d="M106.443 15857.4h9.998-9.997z" fill="red" opacity=".5" stroke="#000" id="patch_53"/><path clip-path="url(#pc196d96ac3)" d="M116.44 15857.4h10-10z" fill="red" opacity=".5" stroke="#000" id="patch_54"/><path clip-path="url(#pc196d96ac3)" d="M126.44 15857.4h9.997-9.998z" fill="red" opacity=".5" stroke="#000" id="patch_55"/><path clip-path="url(#pc196d96ac3)" d="M136.437 15857.4h9.997-9.997z" fill="red" opacity=".5" stroke="#000" id="patch_56"/><path clip-path="url(#pc196d96ac3)" d="M146.434 15857.4h9.998-9.998z" fill="red" opacity=".5" stroke="#000" id="patch_57"/><path clip-path="url(#pc196d96ac3)" d="M156.432 15857.4h9.998-9.998z" fill="red" opacity=".5" stroke="#000" id="patch_58"/><path clip-path="url(#pc196d96ac3)" d="M166.43 15857.4h9.998V188.465h-9.998z" fill="red" opacity=".5" stroke="#000" id="patch_59"/><path clip-path="url(#pc196d96ac3)" d="M176.428 15857.4h9.998V122.45h-9.998z" fill="red" opacity=".5" stroke="#000" id="patch_60"/><path clip-path="url(#pc196d96ac3)" d="M186.426 15857.4h9.998V85.455h-9.998z" fill="red" opacity=".5" stroke="#000" id="patch_61"/><path clip-path="url(#pc196d96ac3)" d="M196.424 15857.4h9.997V65.004h-9.996z" fill="red" opacity=".5" stroke="#000" id="patch_62"/><path clip-path="url(#pc196d96ac3)" d="M206.42 15857.4h10V59.1h-10z" fill="red" opacity=".5" stroke="#000" id="patch_63"/><path clip-path="url(#pc196d96ac3)" d="M216.42 15857.4h9.997V59.2h-9.998z" fill="red" opacity=".5" stroke="#000" id="patch_64"/><path clip-path="url(#pc196d96ac3)" d="M226.417 15857.4h9.998V62.29h-9.998z" fill="red" opacity=".5" stroke="#000" id="patch_65"/><path clip-path="url(#pc196d96ac3)" d="M236.415 15857.4h9.998V75.412h-9.998z" fill="red" opacity=".5" stroke="#000" id="patch_66"/><path clip-path="url(#pc196d96ac3)" d="M246.413 15857.4h9.998V114.07h-9.997z" fill="red" opacity=".5" stroke="#000" id="patch_67"/><path clip-path="url(#pc196d96ac3)" d="M256.41 15857.4h10V191.75h-10z" fill="red" opacity=".5" stroke="#000" id="patch_68"/><path clip-path="url(#pc196d96ac3)" d="M266.41 15857.4h9.996V208.985h-9.997z" fill="red" opacity=".5" stroke="#000" id="patch_69"/><path clip-path="url(#pc196d96ac3)" d="M276.406 15857.4h9.998V214.548h-9.998z" fill="red" opacity=".5" stroke="#000" id="patch_70"/><path clip-path="url(#pc196d96ac3)" d="M286.404 15857.4h9.998V224.865h-9.998z" fill="red" opacity=".5" stroke="#000" id="patch_71"/><path clip-path="url(#pc196d96ac3)" d="M296.402 15857.4h9.998V240.1h-9.998z" fill="red" opacity=".5" stroke="#000" id="patch_72"/><path clip-path="url(#pc196d96ac3)" d="M306.4 15857.4h9.998V246.1H306.4z" fill="red" opacity=".5" stroke="#000" id="patch_73"/><path clip-path="url(#pc196d96ac3)" d="M316.398 15857.4h9.998V247.96h-9.998z" fill="red" opacity=".5" stroke="#000" id="patch_74"/><path clip-path="url(#pc196d96ac3)" d="M326.396 15857.4h9.998V240.96h-9.998z" fill="red" opacity=".5" stroke="#000" id="patch_75"/><path clip-path="url(#pc196d96ac3)" d="M336.394 15857.4h9.997V238.177h-9.996z" fill="red" opacity=".5" stroke="#000" id="patch_76"/><path clip-path="url(#pc196d96ac3)" d="M346.39 15857.4h10V236.036h-10z" fill="red" opacity=".5" stroke="#000" id="patch_77"/><path clip-path="url(#pc196d96ac3)" d="M356.39 15857.4h9.997V235.117h-9.998z" fill="red" opacity=".5" stroke="#000" id="patch_78"/><path clip-path="url(#pc196d96ac3)" d="M366.387 15857.4h9.998V240.505h-9.998z" fill="red" opacity=".5" stroke="#000" id="patch_79"/><path clip-path="url(#pc196d96ac3)" d="M376.385 15857.4h9.998V248.133h-9.998z" fill="red" opacity=".5" stroke="#000" id="patch_80"/><path clip-path="url(#pc196d96ac3)" d="M386.383 15857.4h9.998V259.713h-9.997z" fill="red" opacity=".5" stroke="#000" id="patch_81"/><path clip-path="url(#pc196d96ac3)" d="M396.38 15857.4h9.998V282.302h-9.997z" fill="red" opacity=".5" stroke="#000" id="patch_82"/><path clip-path="url(#pc196d96ac3)" d="M406.378 15857.4h9.998V350.285h-9.998z" fill="red" opacity=".5" stroke="#000" id="patch_83"/><path clip-path="url(#pc196d96ac3)" d="M416.376 15857.4h9.998V345.302h-9.998z" fill="red" opacity=".5" stroke="#000" id="patch_84"/><path clip-path="url(#pc196d96ac3)" d="M426.374 15857.4h9.998-9.998z" fill="red" opacity=".5" stroke="#000" id="patch_85"/><path clip-path="url(#pc196d96ac3)" d="M436.372 15857.4h9.998-9.998z" fill="red" opacity=".5" stroke="#000" id="patch_86"/><path clip-path="url(#pc196d96ac3)" d="M446.37 15857.4h9.998V381.24h-9.998z" fill="red" opacity=".5" stroke="#000" id="patch_87"/><path clip-path="url(#pc196d96ac3)" d="M456.368 15857.4h9.998V381.24h-9.998z" fill="red" opacity=".5" stroke="#000" id="patch_88"/><path clip-path="url(#pc196d96ac3)" d="M466.366 15857.4h9.997-9.997z" fill="red" opacity=".5" stroke="#000" id="patch_89"/><path clip-path="url(#pc196d96ac3)" d="M476.363 15857.4h9.998-9.997z" fill="red" opacity=".5" stroke="#000" id="patch_90"/><path clip-path="url(#pc196d96ac3)" d="M486.36 15857.4h10-10z" fill="red" opacity=".5" stroke="#000" id="patch_91"/><path clip-path="url(#pc196d96ac3)" d="M496.36 15857.4h9.997-9.998z" fill="red" opacity=".5" stroke="#000" id="patch_92"/><path clip-path="url(#pc196d96ac3)" d="M151.593 433V21.33" fill="none" opacity=".5" stroke="green" stroke-dasharray="6.000000,6.000000" stroke-width="2" id="line2d_1"/><path clip-path="url(#pc196d96ac3)" d="M512.196 433V21.33" fill="none" opacity=".5" stroke="green" stroke-dasharray="6.000000,6.000000" stroke-width="2" id="line2d_2"/><path clip-path="url(#pc196d96ac3)" d="M169.47 433V21.33" fill="none" opacity=".5" stroke="red" stroke-dasharray="6.000000,6.000000" stroke-width="2" id="line2d_3"/><path clip-path="url(#pc196d96ac3)" d="M457.328 433V21.33" fill="none" opacity=".5" stroke="red" stroke-dasharray="6.000000,6.000000" stroke-width="2" id="line2d_4"/><path d="M56.454 21.33h499.892" fill="none" stroke="#000" stroke-linecap="square" id="patch_93"/><path d="M556.346 381.24V21.33" fill="none" stroke="#000" stroke-linecap="square" id="patch_94"/><path d="M56.454 381.24h499.892" fill="none" stroke="#000" stroke-linecap="square" id="patch_95"/><path d="M56.454 381.24V21.33" fill="none" stroke="#000" stroke-linecap="square" id="patch_96"/><g id="matplotlib.axis_1"><g id="xtick_1"><g id="line2d_5"><defs><path d="M0 0v-4" id="m93b0483c22" stroke="#000" stroke-width=".5"/></defs><use x="56.454" xlink:href="#m93b0483c22" y="381.24" stroke="#000" stroke-width=".5"/></g><g id="line2d_6"><defs><path d="M0 0v4" id="m741efc42ff" stroke="#000" stroke-width=".5"/></defs><use x="56.454" xlink:href="#m741efc42ff" y="21.33" stroke="#000" stroke-width=".5"/></g><g id="text_1"><defs><path d="M31.78 66.406q-7.608 0-11.452-7.5-3.828-7.484-3.828-22.53 0-14.985 3.828-22.485 3.844-7.5 11.453-7.5 7.673 0 11.5 7.5 3.845 7.5 3.845 22.485 0 15.047-3.844 22.53-3.827 7.5-11.5 7.5m0 7.814q12.267 0 18.736-9.704 6.468-9.688 6.468-28.14 0-18.407-6.468-28.11-6.47-9.688-18.735-9.688-12.25 0-18.718 9.688-6.468 9.703-6.468 28.11 0 18.452 6.468 28.14 6.47 9.703 18.72 9.703" id="DejaVuSans-30"/></defs><use xlink:href="#DejaVuSans-30" transform="translate(53.43 394.358) scale(.12 -.12)"/></g></g><g id="xtick_2"><use x="156.432" xlink:href="#m93b0483c22" y="381.24" stroke="#000" stroke-width=".5" id="line2d_7"/><use x="156.432" xlink:href="#m741efc42ff" y="21.33" stroke="#000" stroke-width=".5" id="line2d_8"/><g id="text_2"><defs><path d="M10.797 72.906h38.72v-8.312h-29.69v-17.86q2.142.735 4.282 1.094 2.156.36 4.312.36 12.203 0 19.328-6.688 7.14-6.688 7.14-18.11 0-11.765-7.328-18.296-7.328-6.516-20.656-6.516-4.593 0-9.36.78-4.75.783-9.827 2.345v9.922q4.39-2.39 9.077-3.563 4.687-1.17 9.906-1.17 8.453 0 13.375 4.436 4.938 4.438 4.938 12.063 0 7.61-4.938 12.047-4.922 4.454-13.375 4.454-3.953 0-7.89-.874-3.922-.875-8.016-2.735z" id="DejaVuSans-35"/></defs><use xlink:href="#DejaVuSans-35" transform="translate(153.602 394.358) scale(.12 -.12)"/></g></g><g id="xtick_3"><use x="256.411" xlink:href="#m93b0483c22" y="381.24" stroke="#000" stroke-width=".5" id="line2d_9"/><use x="256.411" xlink:href="#m741efc42ff" y="21.33" stroke="#000" stroke-width=".5" id="line2d_10"/><g id="text_3"><defs><path d="M12.406 8.297h16.11v55.625l-17.532-3.516v8.985l17.438 3.516h9.86V8.296h16.11V0H12.405z" id="DejaVuSans-31"/></defs><g transform="translate(249.833 394.358) scale(.12 -.12)"><use xlink:href="#DejaVuSans-31"/><use x="63.623" xlink:href="#DejaVuSans-30"/></g></g></g><g id="xtick_4"><use x="356.389" xlink:href="#m93b0483c22" y="381.24" stroke="#000" stroke-width=".5" id="line2d_11"/><use x="356.389" xlink:href="#m741efc42ff" y="21.33" stroke="#000" stroke-width=".5" id="line2d_12"/><g transform="translate(349.937 394.358) scale(.12 -.12)" id="text_4"><use xlink:href="#DejaVuSans-31"/><use x="63.623" xlink:href="#DejaVuSans-35"/></g></g><g id="xtick_5"><use x="456.368" xlink:href="#m93b0483c22" y="381.24" stroke="#000" stroke-width=".5" id="line2d_13"/><use x="456.368" xlink:href="#m741efc42ff" y="21.33" stroke="#000" stroke-width=".5" id="line2d_14"/><g id="text_5"><defs><path d="M19.188 8.297h34.42V0H7.33v8.297q5.61 5.812 15.297 15.594 9.703 9.797 12.188 12.64 4.734 5.314 6.61 9 1.89 3.69 1.89 7.25 0 5.814-4.08 9.47-4.077 3.672-10.624 3.672-4.64 0-9.797-1.61-5.14-1.61-11-4.89v9.97Q13.765 71.78 18.938 73q5.187 1.22 9.484 1.22 11.328 0 18.062-5.673 6.735-5.656 6.735-15.125 0-4.5-1.69-8.53-1.67-4.017-6.124-9.486-1.218-1.422-7.765-8.187-6.53-6.767-18.453-18.923" id="DejaVuSans-32"/></defs><g transform="translate(449.571 394.358) scale(.12 -.12)"><use xlink:href="#DejaVuSans-32"/><use x="63.623" xlink:href="#DejaVuSans-30"/></g></g></g><g id="xtick_6"><use x="556.346" xlink:href="#m93b0483c22" y="381.24" stroke="#000" stroke-width=".5" id="line2d_15"/><use x="556.346" xlink:href="#m741efc42ff" y="21.33" stroke="#000" stroke-width=".5" id="line2d_16"/><g transform="translate(549.675 394.358) scale(.12 -.12)" id="text_6"><use xlink:href="#DejaVuSans-32"/><use x="63.623" xlink:href="#DejaVuSans-35"/></g></g><g id="text_7"><defs><path d="M8.016 75.875h7.812Q23.14 64.36 26.78 53.312q3.642-11.03 3.642-21.92 0-10.94-3.64-22.017-3.64-11.078-10.954-22.563H8.016Q14.5-2 17.703 9.063q3.203 11.063 3.203 22.33 0 11.28-3.203 22.264-3.203 11-9.687 22.22" id="DejaVuSans-29"/><path d="M9.813 72.906h9.86V8.296h35.5V0H9.812z" id="DejaVuSans-4c"/><path d="M2.78-18.797q0 .578.095.78l14.703 59.033q.438 1.422 1.578 2.297 1.157.874 2.625.874 1.267 0 2.142-.765.89-.75.89-2.016 0-.297-.03-.468-.032-.172-.08-.36l-5.905-23.39q-.97-4.157-.97-7.172 0-3.72 1.75-6.11 1.767-2.39 5.33-2.39 7.265 0 12.796 9.078.047.094.063.14.03.063.03.157l7.22 29q.343 1.33 1.562 2.266 1.22.953 2.64.953 1.173 0 2.08-.782.905-.78.905-2.047 0-.577-.11-.78l-7.17-28.813q-.736-2.828-.736-4.874 0-4.297 2.938-4.297 3.125 0 4.703 3.86 1.594 3.858 2.766 9.327.187.578.828.578h1.172q.39 0 .656-.31.266-.314.266-.658-1.75-6.984-3.828-11.218-2.08-4.22-6.766-4.22-3.313 0-5.875 1.907-2.563 1.907-3.344 5.126-2.5-3.125-5.844-5.078-3.344-1.953-7.047-1.953-6.25 0-9.83 2.938l-5.077-20.22q-.28-1.42-1.453-2.296-1.172-.875-2.64-.875-1.22 0-2.125.765-.907.75-.907 2.016" id="Cmmi10-b9"/><path d="M54.89 33.016V0h-8.984v32.72q0 7.764-3.03 11.608-3.032 3.86-9.08 3.86-7.28 0-11.483-4.64-4.204-4.626-4.204-12.642V0H9.077v54.688h9.03v-8.5q3.236 4.937 7.595 7.374Q30.078 56 35.797 56q9.422 0 14.25-5.828 4.844-5.828 4.844-17.156" id="DejaVuSans-6e"/><path d="M8.688 6.11q2.687-4.594 10.796-4.594 3.516 0 6.688 1.187 3.172 1.203 5.25 3.594Q33.5 8.687 33.5 12.11q0 2.593-1.86 4.25-1.86 1.656-4.546 2.25l-5.407 1.062q-3.718.937-6.11 3.47-2.39 2.546-2.39 6.155 0 4.437 2.407 7.86 2.422 3.42 6.375 5.218 3.952 1.813 8.202 1.813 4.547 0 8.125-2.172 3.594-2.172 3.594-6.422 0-2.297-1.296-4.063-1.282-1.75-3.578-1.75-1.328 0-2.282.86-.937.86-.937 2.172 0 1.172.656 2.266.656 1.11 1.75 1.766 1.11.656 2.28.656-.89 2.156-3.31 3.125-2.407.984-5.19.984-2.546 0-5.092-1.032-2.53-1.03-4.078-3.016-1.53-1.968-1.53-4.656 0-1.797 1.265-3.172 1.28-1.36 3.14-1.953l5.813-1.17q2.78-.58 5.094-2.08 2.328-1.483 3.656-3.764 1.344-2.266 1.344-5.188 0-3.72-2.078-7.328-2.063-3.61-5.094-5.766-5.328-3.61-13.03-3.61-5.33 0-9.783 2.438Q5.17 3.767 5.17 8.595q0 2.734 1.578 4.75 1.594 2.03 4.328 2.03 1.625 0 2.72-.983 1.093-.968 1.093-2.578 0-2.296-1.718-4Q11.47 6.11 9.187 6.11z" id="Cmmi10-73"/><path d="M32.172-5.078q-3.797-9.766-7.422-12.735-3.61-2.984-9.656-2.984H7.906v7.516h5.282q3.703 0 5.75 1.764Q21-9.766 23.483-3.22l1.61 4.095-22.11 53.813H12.5l17.094-42.766 17.093 42.766h9.516z" id="DejaVuSans-79"/><path d="M18.313 70.22V54.687h18.5v-6.985h-18.5V18.016q0-6.688 1.828-8.594 1.83-1.906 7.454-1.906h9.218V0h-9.218q-10.407 0-14.36 3.875-3.953 3.89-3.953 14.14v29.688H2.69v6.984H9.28V70.22z" id="DejaVuSans-74"/><path d="M31 75.875q-6.53-11.22-9.72-22.22-3.17-10.983-3.17-22.264 0-11.265 3.203-22.328Q24.515-2 31-13.188h-7.813Q15.875-1.703 12.235 9.375q-3.64 11.078-3.64 22.016 0 10.89 3.61 21.922 3.624 11.047 10.983 22.563z" id="DejaVuSans-28"/><path d="M56.203 29.594v-4.39H14.89q.594-9.282 5.594-14.142 5-4.86 13.938-4.86 5.172 0 10.03 1.267 4.86 1.264 9.657 3.81v-8.5Q49.265.735 44.187-.343q-5.08-1.078-10.297-1.078-13.093 0-20.734 7.61-7.64 7.625-7.64 20.625 0 13.42 7.25 21.296Q20.016 56 32.328 56q11.03 0 17.453-7.11 6.423-7.093 6.423-19.296m-8.984 2.64q-.095 7.36-4.126 11.75-4.032 4.407-10.672 4.407-7.516 0-12.03-4.25-4.517-4.25-5.204-11.968z" id="DejaVuSans-65"/><path d="M48.78 52.594v-8.407q-3.81 2.11-7.64 3.157-3.828 1.047-7.734 1.047-8.75 0-13.593-5.546-4.83-5.532-4.83-15.547 0-10.016 4.83-15.563 4.843-5.53 13.593-5.53 3.907 0 7.735 1.046 3.83 1.047 7.64 3.156V2.094Q45.017.344 40.985-.53q-4.015-.892-8.562-.892-12.36 0-19.64 7.766-7.266 7.765-7.266 20.953 0 13.375 7.343 21.03Q20.22 56 33.015 56q4.14 0 8.093-.86 3.953-.843 7.67-2.546" id="DejaVuSans-63"/><path d="M34.28 27.484q-10.89 0-15.093-2.484-4.203-2.484-4.203-8.5 0-4.78 3.157-7.594 3.157-2.797 8.563-2.797 7.485 0 12 5.296 4.516 5.297 4.516 14.078v2zm17.923 3.72V0H43.22v8.297q-3.08-4.97-7.673-7.344-4.594-2.375-11.234-2.375-8.39 0-13.36 4.72Q6 8.015 6 15.92q0 9.22 6.172 13.906 6.187 4.688 18.437 4.688h12.61v.89q0 6.203-4.08 9.594-4.078 3.39-11.453 3.39-4.687 0-9.14-1.124-4.438-1.125-8.53-3.375v8.313q4.92 1.906 9.56 2.844Q24.22 56 28.61 56q11.874 0 17.734-6.156 5.86-6.14 5.86-18.64" id="DejaVuSans-61"/></defs><g transform="translate(269.62 410.974) scale(.12 -.12)"><use transform="translate(0 .125)" xlink:href="#DejaVuSans-4c"/><use transform="translate(55.713 .125)" xlink:href="#DejaVuSans-61"/><use transform="translate(116.992 .125)" xlink:href="#DejaVuSans-74"/><use transform="translate(156.201 .125)" xlink:href="#DejaVuSans-65"/><use transform="translate(217.725 .125)" xlink:href="#DejaVuSans-6e"/><use transform="translate(281.104 .125)" xlink:href="#DejaVuSans-63"/><use transform="translate(336.084 .125)" xlink:href="#DejaVuSans-79"/><use transform="translate(395.264 .125)" xlink:href="#DejaVuSans-20"/><use transform="translate(427.051 .125)" xlink:href="#DejaVuSans-28"/><use transform="translate(466.064 .125)" xlink:href="#Cmmi10-b9"/><use transform="translate(526.27 .125)" xlink:href="#Cmmi10-73"/><use transform="translate(573.047 .125)" xlink:href="#DejaVuSans-29"/></g></g></g><g id="matplotlib.axis_2"><g id="ytick_1"><g id="line2d_17"><defs><path d="M0 0h4" id="m728421d6d4" stroke="#000" stroke-width=".5"/></defs><use x="56.454" xlink:href="#m728421d6d4" y="381.24" stroke="#000" stroke-width=".5"/></g><g id="line2d_18"><defs><path d="M0 0h-4" id="mcb0005524f" stroke="#000" stroke-width=".5"/></defs><use x="556.346" xlink:href="#mcb0005524f" y="381.24" stroke="#000" stroke-width=".5"/></g><g transform="translate(30.494 385.464) scale(.12 -.12)" id="text_8"><use transform="translate(0 .234)" xlink:href="#DejaVuSans-31"/><use transform="translate(63.623 .234)" xlink:href="#DejaVuSans-30"/><use transform="translate(127.246 58.047) scale(.7)" xlink:href="#DejaVuSans-30"/></g></g><g id="ytick_2"><use x="56.454" xlink:href="#m728421d6d4" y="329.824" stroke="#000" stroke-width=".5" id="line2d_19"/><use x="556.346" xlink:href="#mcb0005524f" y="329.824" stroke="#000" stroke-width=".5" id="line2d_20"/><g transform="translate(30.494 333.989) scale(.12 -.12)" id="text_9"><use transform="translate(0 .153)" xlink:href="#DejaVuSans-31"/><use transform="translate(63.623 .153)" xlink:href="#DejaVuSans-30"/><use transform="translate(127.246 57.966) scale(.7)" xlink:href="#DejaVuSans-31"/></g></g><g id="ytick_3"><use x="56.454" xlink:href="#m728421d6d4" y="278.409" stroke="#000" stroke-width=".5" id="line2d_21"/><use x="556.346" xlink:href="#mcb0005524f" y="278.409" stroke="#000" stroke-width=".5" id="line2d_22"/><g transform="translate(30.494 282.633) scale(.12 -.12)" id="text_10"><use transform="translate(0 .234)" xlink:href="#DejaVuSans-31"/><use transform="translate(63.623 .234)" xlink:href="#DejaVuSans-30"/><use transform="translate(127.246 58.047) scale(.7)" xlink:href="#DejaVuSans-32"/></g></g><g id="ytick_4"><use x="56.454" xlink:href="#m728421d6d4" y="226.993" stroke="#000" stroke-width=".5" id="line2d_23"/><use x="556.346" xlink:href="#mcb0005524f" y="226.993" stroke="#000" stroke-width=".5" id="line2d_24"/><g id="text_11"><defs><path d="M40.578 39.313Q47.656 37.797 51.625 33q3.984-4.78 3.984-11.813 0-10.78-7.422-16.703-7.422-5.906-21.094-5.906-4.578 0-9.438.906-4.86.907-10.03 2.72v9.515q4.093-2.392 8.968-3.61 4.89-1.22 10.218-1.22 9.266 0 14.125 3.657 4.86 3.656 4.86 10.64 0 6.454-4.516 10.08-4.514 3.64-12.56 3.64h-8.5v8.11h8.89q7.265 0 11.124 2.905 3.86 2.906 3.86 8.375 0 5.61-3.985 8.61-3.97 3.015-11.39 3.015-4.064 0-8.704-.89-4.64-.876-10.203-2.72v8.782q5.624 1.562 10.53 2.344 4.907.78 9.25.78 11.235 0 17.766-5.11 6.546-5.092 6.546-13.78 0-6.062-3.468-10.234-3.47-4.172-9.86-5.782" id="DejaVuSans-33"/></defs><g transform="translate(30.494 231.217) scale(.12 -.12)"><use transform="translate(0 .234)" xlink:href="#DejaVuSans-31"/><use transform="translate(63.623 .234)" xlink:href="#DejaVuSans-30"/><use transform="translate(127.246 58.047) scale(.7)" xlink:href="#DejaVuSans-33"/></g></g></g><g id="ytick_5"><use x="56.454" xlink:href="#m728421d6d4" y="175.577" stroke="#000" stroke-width=".5" id="line2d_25"/><use x="556.346" xlink:href="#mcb0005524f" y="175.577" stroke="#000" stroke-width=".5" id="line2d_26"/><g id="text_12"><defs><path d="M37.797 64.313L12.89 25.39h24.907zm-2.594 8.593H47.61V25.39h10.406v-8.203H47.61V0h-9.813v17.188H4.89v9.515z" id="DejaVuSans-34"/></defs><g transform="translate(30.494 179.742) scale(.12 -.12)"><use transform="translate(0 .153)" xlink:href="#DejaVuSans-31"/><use transform="translate(63.623 .153)" xlink:href="#DejaVuSans-30"/><use transform="translate(127.246 57.966) scale(.7)" xlink:href="#DejaVuSans-34"/></g></g></g><g id="ytick_6"><use x="56.454" xlink:href="#m728421d6d4" y="124.161" stroke="#000" stroke-width=".5" id="line2d_27"/><use x="556.346" xlink:href="#mcb0005524f" y="124.161" stroke="#000" stroke-width=".5" id="line2d_28"/><g transform="translate(30.494 128.326) scale(.12 -.12)" id="text_13"><use transform="translate(0 .153)" xlink:href="#DejaVuSans-31"/><use transform="translate(63.623 .153)" xlink:href="#DejaVuSans-30"/><use transform="translate(127.246 57.966) scale(.7)" xlink:href="#DejaVuSans-35"/></g></g><g id="ytick_7"><use x="56.454" xlink:href="#m728421d6d4" y="72.746" stroke="#000" stroke-width=".5" id="line2d_29"/><use x="556.346" xlink:href="#mcb0005524f" y="72.746" stroke="#000" stroke-width=".5" id="line2d_30"/><g id="text_14"><defs><path d="M33.016 40.375q-6.64 0-10.532-4.547-3.875-4.53-3.875-12.437 0-7.86 3.874-12.437 3.89-4.562 10.532-4.562 6.64 0 10.515 4.563 3.876 4.578 3.876 12.438 0 7.907-3.875 12.438-3.874 4.547-10.514 4.547m19.578 30.922v-8.984q-3.72 1.75-7.5 2.67-3.782.94-7.5.94-9.766 0-14.922-6.595-5.14-6.594-5.875-19.922 2.875 4.25 7.22 6.516 4.358 2.266 9.577 2.266 10.984 0 17.36-6.672 6.374-6.657 6.374-18.125 0-11.234-6.64-18.03-6.64-6.782-17.672-6.782-12.657 0-19.344 9.688-6.688 9.703-6.688 28.11 0 17.28 8.204 27.562 8.203 10.28 22.015 10.28 3.72 0 7.5-.734t7.89-2.187" id="DejaVuSans-36"/></defs><g transform="translate(30.494 76.97) scale(.12 -.12)"><use transform="translate(0 .234)" xlink:href="#DejaVuSans-31"/><use transform="translate(63.623 .234)" xlink:href="#DejaVuSans-30"/><use transform="translate(127.246 58.047) scale(.7)" xlink:href="#DejaVuSans-36"/></g></g></g><g id="ytick_8"><use x="56.454" xlink:href="#m728421d6d4" y="21.33" stroke="#000" stroke-width=".5" id="line2d_31"/><use x="556.346" xlink:href="#mcb0005524f" y="21.33" stroke="#000" stroke-width=".5" id="line2d_32"/><g id="text_15"><defs><path d="M8.203 72.906h46.875v-4.203L28.608 0H18.313L43.22 64.594H8.202z" id="DejaVuSans-37"/></defs><g transform="translate(30.494 25.494) scale(.12 -.12)"><use transform="translate(0 .153)" xlink:href="#DejaVuSans-31"/><use transform="translate(63.623 .153)" xlink:href="#DejaVuSans-30"/><use transform="translate(127.246 57.966) scale(.7)" xlink:href="#DejaVuSans-37"/></g></g></g><g id="ytick_9"><g id="line2d_33"><defs><path d="M0 0h2" id="mf0c55a9a47" stroke="#000" stroke-width=".5"/></defs><use x="56.454" xlink:href="#mf0c55a9a47" y="365.762" stroke="#000" stroke-width=".5"/></g><g id="line2d_34"><defs><path d="M0 0h-2" id="ma4f294b3af" stroke="#000" stroke-width=".5"/></defs><use x="556.346" xlink:href="#ma4f294b3af" y="365.762" stroke="#000" stroke-width=".5"/></g></g><g id="ytick_10"><use x="56.454" xlink:href="#mf0c55a9a47" y="350.285" stroke="#000" stroke-width=".5" id="line2d_35"/><use x="556.346" xlink:href="#ma4f294b3af" y="350.285" stroke="#000" stroke-width=".5" id="line2d_36"/></g><g id="ytick_11"><use x="56.454" xlink:href="#mf0c55a9a47" y="341.231" stroke="#000" stroke-width=".5" id="line2d_37"/><use x="556.346" xlink:href="#ma4f294b3af" y="341.231" stroke="#000" stroke-width=".5" id="line2d_38"/></g><g id="ytick_12"><use x="56.454" xlink:href="#mf0c55a9a47" y="334.807" stroke="#000" stroke-width=".5" id="line2d_39"/><use x="556.346" xlink:href="#ma4f294b3af" y="334.807" stroke="#000" stroke-width=".5" id="line2d_40"/></g><g id="ytick_13"><use x="56.454" xlink:href="#mf0c55a9a47" y="314.347" stroke="#000" stroke-width=".5" id="line2d_41"/><use x="556.346" xlink:href="#ma4f294b3af" y="314.347" stroke="#000" stroke-width=".5" id="line2d_42"/></g><g id="ytick_14"><use x="56.454" xlink:href="#mf0c55a9a47" y="298.869" stroke="#000" stroke-width=".5" id="line2d_43"/><use x="556.346" xlink:href="#ma4f294b3af" y="298.869" stroke="#000" stroke-width=".5" id="line2d_44"/></g><g id="ytick_15"><use x="56.454" xlink:href="#mf0c55a9a47" y="289.815" stroke="#000" stroke-width=".5" id="line2d_45"/><use x="556.346" xlink:href="#ma4f294b3af" y="289.815" stroke="#000" stroke-width=".5" id="line2d_46"/></g><g id="ytick_16"><use x="56.454" xlink:href="#mf0c55a9a47" y="283.391" stroke="#000" stroke-width=".5" id="line2d_47"/><use x="556.346" xlink:href="#ma4f294b3af" y="283.391" stroke="#000" stroke-width=".5" id="line2d_48"/></g><g id="ytick_17"><use x="56.454" xlink:href="#mf0c55a9a47" y="262.931" stroke="#000" stroke-width=".5" id="line2d_49"/><use x="556.346" xlink:href="#ma4f294b3af" y="262.931" stroke="#000" stroke-width=".5" id="line2d_50"/></g><g id="ytick_18"><use x="56.454" xlink:href="#mf0c55a9a47" y="247.453" stroke="#000" stroke-width=".5" id="line2d_51"/><use x="556.346" xlink:href="#ma4f294b3af" y="247.453" stroke="#000" stroke-width=".5" id="line2d_52"/></g><g id="ytick_19"><use x="56.454" xlink:href="#mf0c55a9a47" y="238.399" stroke="#000" stroke-width=".5" id="line2d_53"/><use x="556.346" xlink:href="#ma4f294b3af" y="238.399" stroke="#000" stroke-width=".5" id="line2d_54"/></g><g id="ytick_20"><use x="56.454" xlink:href="#mf0c55a9a47" y="231.976" stroke="#000" stroke-width=".5" id="line2d_55"/><use x="556.346" xlink:href="#ma4f294b3af" y="231.976" stroke="#000" stroke-width=".5" id="line2d_56"/></g><g id="ytick_21"><use x="56.454" xlink:href="#mf0c55a9a47" y="211.515" stroke="#000" stroke-width=".5" id="line2d_57"/><use x="556.346" xlink:href="#ma4f294b3af" y="211.515" stroke="#000" stroke-width=".5" id="line2d_58"/></g><g id="ytick_22"><use x="56.454" xlink:href="#mf0c55a9a47" y="196.038" stroke="#000" stroke-width=".5" id="line2d_59"/><use x="556.346" xlink:href="#ma4f294b3af" y="196.038" stroke="#000" stroke-width=".5" id="line2d_60"/></g><g id="ytick_23"><use x="56.454" xlink:href="#mf0c55a9a47" y="186.984" stroke="#000" stroke-width=".5" id="line2d_61"/><use x="556.346" xlink:href="#ma4f294b3af" y="186.984" stroke="#000" stroke-width=".5" id="line2d_62"/></g><g id="ytick_24"><use x="56.454" xlink:href="#mf0c55a9a47" y="180.56" stroke="#000" stroke-width=".5" id="line2d_63"/><use x="556.346" xlink:href="#ma4f294b3af" y="180.56" stroke="#000" stroke-width=".5" id="line2d_64"/></g><g id="ytick_25"><use x="56.454" xlink:href="#mf0c55a9a47" y="160.099" stroke="#000" stroke-width=".5" id="line2d_65"/><use x="556.346" xlink:href="#ma4f294b3af" y="160.099" stroke="#000" stroke-width=".5" id="line2d_66"/></g><g id="ytick_26"><use x="56.454" xlink:href="#mf0c55a9a47" y="144.622" stroke="#000" stroke-width=".5" id="line2d_67"/><use x="556.346" xlink:href="#ma4f294b3af" y="144.622" stroke="#000" stroke-width=".5" id="line2d_68"/></g><g id="ytick_27"><use x="56.454" xlink:href="#mf0c55a9a47" y="135.568" stroke="#000" stroke-width=".5" id="line2d_69"/><use x="556.346" xlink:href="#ma4f294b3af" y="135.568" stroke="#000" stroke-width=".5" id="line2d_70"/></g><g id="ytick_28"><use x="56.454" xlink:href="#mf0c55a9a47" y="129.144" stroke="#000" stroke-width=".5" id="line2d_71"/><use x="556.346" xlink:href="#ma4f294b3af" y="129.144" stroke="#000" stroke-width=".5" id="line2d_72"/></g><g id="ytick_29"><use x="56.454" xlink:href="#mf0c55a9a47" y="108.684" stroke="#000" stroke-width=".5" id="line2d_73"/><use x="556.346" xlink:href="#ma4f294b3af" y="108.684" stroke="#000" stroke-width=".5" id="line2d_74"/></g><g id="ytick_30"><use x="56.454" xlink:href="#mf0c55a9a47" y="93.206" stroke="#000" stroke-width=".5" id="line2d_75"/><use x="556.346" xlink:href="#ma4f294b3af" y="93.206" stroke="#000" stroke-width=".5" id="line2d_76"/></g><g id="ytick_31"><use x="56.454" xlink:href="#mf0c55a9a47" y="84.152" stroke="#000" stroke-width=".5" id="line2d_77"/><use x="556.346" xlink:href="#ma4f294b3af" y="84.152" stroke="#000" stroke-width=".5" id="line2d_78"/></g><g id="ytick_32"><use x="56.454" xlink:href="#mf0c55a9a47" y="77.728" stroke="#000" stroke-width=".5" id="line2d_79"/><use x="556.346" xlink:href="#ma4f294b3af" y="77.728" stroke="#000" stroke-width=".5" id="line2d_80"/></g><g id="ytick_33"><use x="56.454" xlink:href="#mf0c55a9a47" y="57.268" stroke="#000" stroke-width=".5" id="line2d_81"/><use x="556.346" xlink:href="#ma4f294b3af" y="57.268" stroke="#000" stroke-width=".5" id="line2d_82"/></g><g id="ytick_34"><use x="56.454" xlink:href="#mf0c55a9a47" y="41.79" stroke="#000" stroke-width=".5" id="line2d_83"/><use x="556.346" xlink:href="#ma4f294b3af" y="41.79" stroke="#000" stroke-width=".5" id="line2d_84"/></g><g id="ytick_35"><use x="56.454" xlink:href="#mf0c55a9a47" y="32.737" stroke="#000" stroke-width=".5" id="line2d_85"/><use x="556.346" xlink:href="#ma4f294b3af" y="32.737" stroke="#000" stroke-width=".5" id="line2d_86"/></g><g id="ytick_36"><use x="56.454" xlink:href="#mf0c55a9a47" y="26.313" stroke="#000" stroke-width=".5" id="line2d_87"/><use x="556.346" xlink:href="#ma4f294b3af" y="26.313" stroke="#000" stroke-width=".5" id="line2d_88"/></g><g id="text_16"><defs><path d="M9.813 72.906h13.28l32.33-60.984v60.984h9.56V0h-13.28L19.39 60.984V0H9.813z" id="DejaVuSans-4e"/><path d="M30.61 48.39q-7.22 0-11.422-5.64-4.204-5.64-4.204-15.453 0-9.813 4.172-15.453 4.188-5.64 11.453-5.64 7.187 0 11.374 5.655 4.203 5.67 4.203 15.437 0 9.72-4.203 15.406-4.187 5.688-11.375 5.688m0 7.61q11.718 0 18.406-7.625 6.703-7.61 6.703-21.078 0-13.422-6.704-21.078-6.688-7.642-18.407-7.642-11.766 0-18.438 7.64-6.656 7.657-6.656 21.08 0 13.468 6.656 21.077Q18.844 56 30.61 56" id="DejaVuSans-6f"/><path d="M52 44.188q3.375 6.062 8.063 8.937Q64.75 56 71.093 56q8.548 0 13.188-5.984 4.642-5.97 4.642-17V0h-9.03v32.72q0 7.858-2.798 11.655-2.78 3.813-8.485 3.813-6.985 0-11.047-4.64-4.047-4.626-4.047-12.642V0h-9.032v32.72q0 7.905-2.78 11.686-2.782 3.782-8.595 3.782-6.89 0-10.954-4.657-4.047-4.655-4.047-12.624V0H9.077v54.688h9.03v-8.5q3.08 5.03 7.376 7.42Q29.78 56 35.687 56q5.97 0 10.14-3.03Q50 49.952 52 44.187" id="DejaVuSans-6d"/><path d="M37.11 75.984V68.5h-8.594q-4.828 0-6.72-1.953-1.874-1.953-1.874-7.03v-4.83H34.72v-6.984H19.92V0h-9.03v47.703H2.296v6.984h8.594V58.5q0 9.125 4.25 13.297 4.25 4.187 13.47 4.187z" id="DejaVuSans-66"/><path d="M8.5 21.578v33.11h8.984V21.922q0-7.766 3.016-11.656 3.03-3.875 9.094-3.875 7.265 0 11.484 4.64 4.234 4.642 4.234 12.658v31h8.985V0h-8.984v8.406Q42.047 3.422 37.718 1q-4.314-2.422-10.032-2.422-9.422 0-14.313 5.86Q8.5 10.297 8.5 21.578M31.11 56z" id="DejaVuSans-75"/><path d="M48.688 27.297q0 9.906-4.08 15.547-4.077 5.64-11.202 5.64-7.14 0-11.218-5.64-4.08-5.64-4.08-15.547 0-9.906 4.08-15.547 4.078-5.64 11.218-5.64 7.125 0 11.203 5.64 4.078 5.64 4.078 15.547M18.108 46.39q2.845 4.876 7.158 7.235Q29.594 56 35.594 56q9.968 0 16.187-7.906 6.236-7.907 6.236-20.797T51.78 6.484q-6.218-7.906-16.186-7.906-6 0-10.328 2.375-4.313 2.375-7.157 7.25V0H9.077v75.984h9.03z" id="DejaVuSans-62"/><path d="M44.28 53.078v-8.5q-3.796 1.953-7.905 2.922-4.094.984-8.5.984-6.688 0-10.03-2.047-3.345-2.046-3.345-6.156 0-3.124 2.39-4.905 2.39-1.78 9.626-3.39l3.078-.688q9.562-2.047 13.593-5.78 4.032-3.736 4.032-10.423 0-7.625-6.032-12.078-6.032-4.438-16.58-4.438-4.39 0-9.155.86T5.423 2v9.28q4.983-2.592 9.81-3.89 4.83-1.28 9.58-1.28 6.343 0 9.75 2.17 3.42 2.173 3.42 6.126 0 3.656-2.467 5.61-2.453 1.953-10.813 3.765l-3.125.736q-8.344 1.75-12.062 5.39-3.704 3.64-3.704 9.985 0 7.72 5.47 11.907Q16.75 56 26.81 56q4.97 0 9.36-.734 4.406-.72 8.11-2.188" id="DejaVuSans-73"/><path d="M41.11 46.297q-1.516.875-3.297 1.28Q36.03 48 33.89 48q-7.624 0-11.703-4.953-4.078-4.953-4.078-14.234V0H9.077v54.688h9.03v-8.5q2.845 4.984 7.376 7.39Q30.03 56 36.53 56q.923 0 2.048-.125 1.125-.11 2.484-.36z" id="DejaVuSans-72"/></defs><g transform="matrix(0 -.12 -.12 0 22.998 271.069)"><use xlink:href="#DejaVuSans-4e"/><use x="74.805" xlink:href="#DejaVuSans-75"/><use x="138.184" xlink:href="#DejaVuSans-6d"/><use x="235.596" xlink:href="#DejaVuSans-62"/><use x="299.072" xlink:href="#DejaVuSans-65"/><use x="360.596" xlink:href="#DejaVuSans-72"/><use x="401.709" xlink:href="#DejaVuSans-20"/><use x="433.496" xlink:href="#DejaVuSans-6f"/><use x="494.678" xlink:href="#DejaVuSans-66"/><use x="529.883" xlink:href="#DejaVuSans-20"/><use x="561.67" xlink:href="#DejaVuSans-6f"/><use x="622.852" xlink:href="#DejaVuSans-63"/><use x="677.832" xlink:href="#DejaVuSans-63"/><use x="732.813" xlink:href="#DejaVuSans-75"/><use x="796.191" xlink:href="#DejaVuSans-72"/><use x="835.555" xlink:href="#DejaVuSans-72"/><use x="874.418" xlink:href="#DejaVuSans-65"/><use x="935.941" xlink:href="#DejaVuSans-6e"/><use x="999.32" xlink:href="#DejaVuSans-63"/><use x="1054.301" xlink:href="#DejaVuSans-65"/><use x="1115.824" xlink:href="#DejaVuSans-73"/></g></g></g><g id="text_17"><defs><path d="M8.406 5.516q0 2.25 1.656 3.86 1.657 1.608 3.86 1.608 1.36 0 2.672-.734 1.328-.734 2.062-2.047.735-1.312.735-2.687 0-2.188-1.624-3.86Q16.156 0 13.922 0q-2.203 0-3.86 1.656-1.656 1.672-1.656 3.86" id="Cmmi10-3a"/><path d="M4.203 15.188q0 6 3.953 10.61Q12.11 30.42 18.312 33.5l-3.718 2.39q-3.406 2.25-5.563 5.985-2.14 3.734-2.14 7.828 0 4.797 2.516 8.64 2.516 3.86 6.688 6.063T25 66.61q4.438 0 8.563-1.813 4.14-1.813 6.796-5.188 2.656-3.36 2.656-8 0-3.36-1.594-6.25-1.578-2.876-4.344-5.172-2.75-2.297-5.875-3.907l5.72-3.655q3.952-2.594 6.358-6.797 2.423-4.203 2.423-8.828 0-5.422-2.906-9.875Q39.89 2.687 35.11.235 30.327-2.204 25-2.204q-5.172 0-9.984 2.11Q10.203 2 7.203 5.983q-3 3.985-3 9.204m5.422 0q0-3.954 2.172-7.235 2.172-3.266 5.734-5.125Q21.095.984 25 .984q5.813 0 10.547 3.39 4.734 3.392 4.734 9 0 1.907-.764 3.782-.75 1.89-2.094 3.422-1.344 1.547-3 2.516L21 31.78q-3.125-1.655-5.75-4.202-2.61-2.53-4.125-5.703-1.5-3.172-1.5-6.688M16.5 45.703l12.11-7.812q4.203 2.438 6.89 5.907 2.688 3.47 2.688 7.812 0 3.374-1.89 6.17-1.876 2.814-4.907 4.376-3.015 1.563-6.484 1.563-3.03 0-6.11-1.173-3.077-1.172-5.077-3.5-2-2.313-2-5.438 0-4.688 4.78-7.907" id="Cmr10-38"/><path d="M2.78 16.5v3.516L33.688 66.11q.344.5 1.032.5h1.468q1.124 0 1.124-1.126V20.016h9.813V16.5h-9.813V6.687q0-2.046 2.922-2.61 2.938-.56 6.782-.56V0H19.484v3.516q3.86 0 6.782.562 2.937.563 2.937 2.61V16.5zm3.33 3.516h23.67v35.406z" id="Cmr10-34"/></defs><g transform="translate(119.6 36.808) scale(.12 -.12)" fill="green"><use transform="translate(0 .391)" xlink:href="#Cmr10-34"/><use transform="translate(50 .391)" xlink:href="#Cmmi10-3a"/><use transform="translate(78.543 .391)" xlink:href="#Cmr10-38"/><use transform="translate(128.543 .391)" xlink:href="#Cmmi10-b9"/><use transform="translate(188.748 .391)" xlink:href="#Cmmi10-73"/></g></g><g id="text_18"><defs><path d="M17.39 2.594q0 5.562.97 10.875.984 5.327 2.86 10.53 1.874 5.203 4.53 10.203 2.672 5 5.844 9.406l9.125 12.687H29.296q-17.766 0-18.313-.484-1.312-1.61-2.484-9.235H5.61l3.28 21h2.922v-.297q0-1.796 6.11-2.343 6.11-.53 11.97-.53h18.592v-2.594q0-.094-.03-.14-.017-.048-.063-.142L34.626 42.188q-5.078-7.515-6.36-16.703Q27 16.312 27 2.594 27 .64 25.578-.78q-1.406-1.423-3.36-1.423-2 0-3.42 1.422Q17.39.64 17.39 2.593" id="Cmr10-37"/><path d="M8.688 11.375q1.03-2.922 3.156-5.328 2.125-2.39 5.03-3.734 2.907-1.33 6.032-1.33 7.22 0 9.953 5.61 2.734 5.61 2.734 13.626 0 3.468-.125 5.827-.11 2.375-.657 4.562-.922 3.515-3.25 6.156-2.313 2.64-5.688 2.64-3.36 0-5.78-1.03-2.423-1.017-3.94-2.392-1.5-1.36-2.67-2.875-1.172-1.516-1.47-1.61h-1.124q-.25 0-.624.313-.36.312-.36.61v33.405q0 .234.313.5.327.28.67.28h.297q6.735-3.233 14.297-3.233 7.422 0 14.313 3.234h.297q.343 0 .625-.25.296-.25.296-.532v-.937q0-.484-.188-.484-3.422-4.547-8.578-7.094-5.156-2.53-10.672-2.53-4 0-8.203 1.124v-18.89q3.328 2.687 5.938 3.828Q21.922 42 25.983 42q5.517 0 9.876-3.188 4.374-3.17 6.718-8.28 2.344-5.095 2.344-10.407 0-6.016-2.953-11.14-2.954-5.126-8.032-8.157-5.08-3.03-11.032-3.03-4.937 0-9.062 2.53-4.125 2.547-6.5 6.844-2.36 4.297-2.36 9.14 0 2.25 1.454 3.657 1.468 1.42 3.67 1.42 2.204 0 3.69-1.453 1.483-1.437 1.483-3.625 0-2.156-1.483-3.64-1.485-1.485-3.688-1.485-.344 0-.782.063-.437.078-.64.125" id="Cmr10-35"/></defs><g transform="translate(171.469 36.808) scale(.12 -.12)" fill="red"><use transform="translate(0 .422)" xlink:href="#Cmr10-35"/><use transform="translate(50 .422)" xlink:href="#Cmmi10-3a"/><use transform="translate(78.543 .422)" xlink:href="#Cmr10-37"/><use transform="translate(128.543 .422)" xlink:href="#Cmmi10-b9"/><use transform="translate(188.748 .422)" xlink:href="#Cmmi10-73"/></g></g><g id="text_19"><defs><path d="M4.984 0v2.688q0 .25.188.53l15.53 17.188q3.517 3.813 5.704 6.39 2.203 2.595 4.344 5.97 2.156 3.375 3.406 6.86 1.25 3.483 1.25 7.39 0 4.11-1.515 7.843-1.515 3.734-4.515 5.984t-7.25 2.25q-4.344 0-7.813-2.625-3.468-2.61-4.89-6.75.39.093 1.078.093 2.25 0 3.828-1.516 1.594-1.516 1.594-3.906 0-2.296-1.594-3.89-1.578-1.578-3.828-1.578-2.344 0-3.938 1.625-1.578 1.64-1.578 3.844 0 3.766 1.407 7.047 1.423 3.297 4.08 5.86 2.67 2.578 6.014 3.937 3.344 1.375 7.094 1.375 5.72 0 10.64-2.422 4.938-2.422 7.813-6.844 2.892-4.407 2.892-10.328 0-4.344-1.906-8.25-1.907-3.907-4.89-7.11-2.97-3.187-7.61-7.25-4.64-4.047-6.094-5.406L13.094 8.11h9.61q7.077 0 11.843.11 4.766.124 5.047.374Q40.766 9.86 42 17.828h2.922L42.094 0z" id="Cmr10-32"/></defs><g transform="translate(514.195 36.808) scale(.12 -.12)" fill="green"><use transform="translate(0 .391)" xlink:href="#Cmr10-32"/><use transform="translate(50 .391)" xlink:href="#Cmr10-32"/><use transform="translate(100 .391)" xlink:href="#Cmmi10-3a"/><use transform="translate(128.543 .391)" xlink:href="#Cmr10-38"/><use transform="translate(178.543 .391)" xlink:href="#Cmmi10-b9"/><use transform="translate(238.748 .391)" xlink:href="#Cmmi10-73"/></g></g><g id="text_20"><defs><path d="M25-2.203q-12.25 0-16.672 10.078Q3.906 17.97 3.906 31.89q0 8.688 1.578 16.344 1.594 7.672 6.297 13.016Q16.5 66.61 25 66.61q6.594 0 10.78-3.235 4.204-3.22 6.407-8.328 2.204-5.094 3-10.938Q46 38.28 46 31.89q0-8.593-1.594-16.093-1.578-7.5-6.218-12.75T25-2.203M25 .39q5.563 0 8.297 5.704 2.734 5.718 3.375 12.656.64 6.938.64 14.75 0 7.516-.64 13.86-.64 6.36-3.36 11.5Q30.61 64.015 25 64.015q-5.656 0-8.39-5.188-2.735-5.172-3.376-11.5-.64-6.312-.64-13.828 0-5.563.265-10.5.28-4.938 1.453-10.188 1.17-5.25 3.78-8.843Q20.704.39 25 .39" id="Cmr10-30"/></defs><g transform="translate(421.335 36.808) scale(.12 -.12)" fill="red"><use transform="translate(0 .391)" xlink:href="#Cmr10-32"/><use transform="translate(50 .391)" xlink:href="#Cmr10-30"/><use transform="translate(100 .391)" xlink:href="#Cmmi10-3a"/><use transform="translate(128.543 .391)" xlink:href="#Cmr10-30"/><use transform="translate(178.543 .391)" xlink:href="#Cmmi10-b9"/><use transform="translate(238.748 .391)" xlink:href="#Cmmi10-73"/></g></g><g id="legend_1"><path d="M63.654 374.04h81.506v-46.593H63.654z" fill="#fff" stroke="#000" id="patch_97"/><path d="M69.414 344.15h28.8v-10.08h-28.8z" fill="green" opacity=".5" stroke="#000" id="patch_98"/><g id="text_21"><defs><path d="M19.672 64.797v-27.39h12.406q6.89 0 10.64 3.562 3.766 3.56 3.766 10.155 0 6.547-3.765 10.11-3.75 3.562-10.642 3.562zm-9.86 8.11h22.266q12.266 0 18.53-5.548 6.283-5.547 6.283-16.235 0-10.797-6.28-16.313-6.266-5.515-18.532-5.515H19.672V0h-9.86z" id="DejaVuSans-50"/><path d="M9.813 72.906h9.86V0h-9.86z" id="DejaVuSans-49"/><path d="M64.406 67.28V56.89q-4.984 4.64-10.625 6.922-5.64 2.297-11.983 2.297-12.5 0-19.14-7.64-6.64-7.642-6.64-22.095 0-14.406 6.64-22.047 6.64-7.64 19.14-7.64 6.344 0 11.984 2.296 5.642 2.297 10.626 6.938V5.61Q59.234 2.093 53.436.327q-5.78-1.75-12.217-1.75-16.564 0-26.095 10.125Q5.61 18.843 5.61 36.375q0 17.578 9.515 27.703 9.53 10.14 26.094 10.14 6.53 0 12.31-1.734 5.798-1.734 10.876-5.203" id="DejaVuSans-43"/></defs><g transform="translate(109.734 344.149) scale(.144 -.144)"><use xlink:href="#DejaVuSans-50"/><use x="60.303" xlink:href="#DejaVuSans-43"/><use x="130.127" xlink:href="#DejaVuSans-49"/><use x="159.619" xlink:href="#DejaVuSans-65"/></g></g><path d="M69.414 365.285h28.8v-10.08h-28.8z" fill="red" opacity=".5" stroke="#000" id="patch_99"/><g id="text_22"><defs><path d="M-.297 72.906h61.672v-8.312H35.5V0h-9.906v64.594H-.296z" id="DejaVuSans-54"/></defs><g transform="translate(109.734 365.285) scale(.144 -.144)"><use xlink:href="#DejaVuSans-4c"/><use x="55.713" xlink:href="#DejaVuSans-50"/><use x="116.016" xlink:href="#DejaVuSans-54"/></g></g></g></g></g><defs><clipPath id="pc196d96ac3"><path d="M56.454 21.33h499.893v359.91H56.454z"/></clipPath></defs></svg>