<svg xmlns="http://www.w3.org/2000/svg" width="591.75" height="505.939" viewBox="0 0 591.75 505.93906"><g fill="none" stroke="#000" stroke-width="1.125" stroke-linejoin="bevel" stroke-miterlimit="10"><path d="M29.25 255.938h1.125m-1.125 2.25h1.125m-1.125 2.25h1.125m-1.125 2.25h1.125m-1.125 2.25h1.125m0 0H31.5m-1.125-2.25H31.5m-1.125-2.25H31.5m-1.125-2.25H31.5m-1.125-2.25H31.5m0 0h1.125m-1.125 2.25h1.125m-1.125 2.25h1.125m-1.125 2.25h1.125m-1.125 2.25h1.125m0 0h1.125m-1.125-2.25h1.125m-1.125-2.25h1.125m-1.125-2.25h1.125m-1.125-2.25h1.125m0 0h1.125m-1.125 2.25h1.125m-1.125 2.25h1.125m-1.125 2.25h1.125m-1.125 2.25h1.125m0 0H36m-1.125-2.25H36m-1.125-2.25H36m-1.125-2.25H36m-1.125-2.25H36m0 0h1.125M36 258.188h1.125M36 260.438h1.125M36 262.688h1.125M36 264.938h1.125m0 0h1.125m-1.125-2.25h1.125m-1.125-2.25h1.125m-1.125-2.25h1.125m-1.125-2.25h1.125m0 0h1.125m-1.125 2.25h1.125m-1.125 2.25h1.125m-1.125 2.25h1.125m-1.125 2.25h1.125m0 0H40.5m-1.125-2.25H40.5m-1.125-2.25H40.5m-1.125-2.25H40.5m0-2.25h1.125m-1.125 2.25h1.125m-1.125 2.25h1.125m-1.125 2.25h1.125m-1.125 2.25h1.125m0 0h1.125m-1.125-2.25h1.125m-1.125-2.25h1.125m-1.125-2.25h1.125m-1.125-2.25h1.125m0 0h1.125m-1.125 2.25h1.125m-1.125 2.25h1.125m-1.125 2.25h1.125m-1.125 2.25h1.125m0 0H45m-1.125-2.25H45m-1.125-2.25H45m-1.125-2.25H45m-1.125-2.25H45m0 0h1.125M45 258.188h1.125M45 260.438h1.125M45 262.688h1.125M45 264.938h1.125m0 0h1.125m-1.125-2.25h1.125m-1.125-2.25h1.125m-1.125-2.25h1.125m-1.125-2.25h1.125m0 0h1.125m-1.125 2.25h1.125m-1.125 2.25h1.125m-1.125 2.25h1.125m-1.125 2.25h1.125m0 0H49.5m-1.125-2.25H49.5m-1.125-2.25H49.5m-1.125-2.25H49.5m-1.125-2.25H49.5m0 0h1.125m-1.125 2.25h1.125m-1.125 2.25h1.125m-1.125 2.25h1.125m-1.125 2.25h1.125m0 0h1.125m-1.125-2.25h1.125m-1.125-2.25h1.125m-1.125-2.25h1.125m-1.125-2.25h1.125m0 0h1.125m-1.125 2.25h1.125m-1.125 2.25h1.125m-1.125 2.25h1.125m-1.125 2.25h1.125m0 0H54m-1.125-2.25H54m-1.125-2.25H54m-1.125-2.25H54m-1.125-2.25H54m0 0h1.125M54 258.188h1.125M54 260.438h1.125M54 262.688h1.125M54 264.938h1.125m0 0h1.125m-1.125-2.25h1.125m-1.125-2.25h1.125m-1.125-2.25h1.125m-1.125-2.25h1.125m0 0h1.125m-1.125 2.25h1.125m-1.125 2.25h1.125m-1.125 2.25h1.125m-1.125 2.25h1.125m0 0H58.5m-1.125-2.25H58.5m-1.125-2.25H58.5m-1.125-2.25H58.5m-1.125-2.25H58.5m0 0h1.125m-1.125 2.25h1.125m-1.125 2.25h1.125m-1.125 2.25h1.125m-1.125 2.25h1.125m0 0h1.125m-1.125-2.25h1.125m-1.125-2.25h1.125m-1.125-2.25h1.125m-1.125-2.25h1.125m0 0h1.125m-1.125 2.25h1.125m-1.125 2.25h1.125m-1.125 2.25h1.125m-1.125 2.25h1.125m0 0H63m-1.125-2.25H63m-1.125-2.25H63m-1.125-2.25H63m-1.125-2.25H63m0 0h1.125M63 258.188h1.125M63 260.438h1.125M63 262.688h1.125M63 264.938h1.125m0 0h1.125m-1.125-2.25h1.125m-1.125-2.25h1.125m-1.125-2.25h1.125m-1.125-2.25h1.125m0 0h1.125m-1.125 2.25h1.125m-1.125 2.25h1.125m-1.125 2.25h1.125m-1.125 2.25h1.125m0 0H67.5m-1.125-2.25H67.5m-1.125-2.25H67.5m-1.125-2.25H67.5m-1.125-2.25H67.5m0 0h1.125m-1.125 2.25h1.125m-1.125 2.25h1.125m-1.125 2.25h1.125m-1.125 2.25h1.125m0 0h1.125m-1.125-2.25h1.125m-1.125-2.25h1.125m-1.125-2.25h1.125m-1.125-2.25h1.125m0 0h1.125m-1.125 2.25h1.125m-1.125 2.25h1.125m-1.125 2.25h1.125m-1.125 2.25h1.125m0 0H72m-1.125-2.25H72m-1.125-2.25H72m-1.125-2.25H72m-1.125-2.25H72m0 0h1.125M72 258.188h1.125M72 260.438h1.125M72 262.688h1.125M72 264.938h1.125m0 0h1.125m-1.125-2.25h1.125m-1.125-2.25h1.125m-1.125-2.25h1.125m-1.125-2.25h1.125m0 0h1.125m-1.125 2.25h1.125m-1.125 2.25h1.125m-1.125 2.25h1.125m-1.125 2.25h1.125m0 0H76.5m-1.125-2.25H76.5m-1.125-2.25H76.5m-1.125-2.25H76.5m-1.125-2.25H76.5m0 0h1.125m-1.125 2.25h1.125m-1.125 2.25h1.125m-1.125 2.25h1.125m-1.125 2.25h1.125m0 0h1.125m-1.125-2.25h1.125m-1.125-2.25h1.125m-1.125-2.25h1.125m-1.125-2.25h1.125m0 0h1.125m-1.125 2.25h1.125m-1.125 2.25h1.125m-1.125 2.25h1.125m-1.125 2.25h1.125m0 0H81m-1.125-2.25H81m-1.125-2.25H81m-1.125-2.25H81m-1.125-2.25H81m0 0h1.125M81 258.188h1.125M81 260.438h1.125M81 262.688h1.125M81 264.938h1.125m0 0h1.125m-1.125-2.25h1.125m-1.125-2.25h1.125m-1.125-2.25h1.125m-1.125-2.25h1.125m0 0h1.125m-1.125 2.25h1.125m-1.125 2.25h1.125m-1.125 2.25h1.125m-1.125 2.25h1.125m0 0H85.5m-1.125-2.25H85.5m-1.125-2.25H85.5m-1.125-2.25H85.5m-1.125-2.25H85.5m0 0h1.125m-1.125 2.25h1.125m-1.125 2.25h1.125m-1.125 2.25h1.125m-1.125 2.25h1.125m0 0h1.125m-1.125-2.25h1.125m-1.125-2.25h1.125m-1.125-2.25h1.125m-1.125-2.25h1.125m0 0h1.125m-1.125 2.25h1.125m-1.125 2.25h1.125m-1.125 2.25h1.125m-1.125 2.25h1.125m0 0H90m-1.125-2.25H90m-1.125-2.25H90m-1.125-2.25H90m-1.125-2.25H90m0 0h1.125M90 258.188h1.125M90 260.438h1.125M90 262.688h1.125M90 264.938h1.125m0 0h1.125m-1.125-2.25h1.125m-1.125-2.25h1.125m-1.125-2.25h1.125m0-2.25h1.125m-1.125 2.25h1.125m-1.125 2.25h1.125m-1.125 2.25h1.125m-1.125 2.25h1.125m0 0H94.5m-1.125-2.25H94.5m-1.125-2.25H94.5m-1.125-2.25H94.5m-1.125-2.25H94.5m0 0h1.125m-1.125 2.25h1.125m-1.125 2.25h1.125m-1.125 2.25h1.125m-1.125 2.25h1.125m0 0h1.125m-1.125-2.25h1.125m-1.125-2.25h1.125m-1.125-2.25h1.125m-1.125-2.25h1.125m0 0h1.125m-1.125 2.25h1.125m-1.125 2.25h1.125m-1.125 2.25h1.125m-1.125 2.25h1.125m0 0H99m-1.125-2.25H99m-1.125-2.25H99m-1.125-2.25H99m-1.125-2.25H99m0 0h1.125M99 258.188h1.125M99 260.438h1.125M99 262.688h1.125M99 264.938h1.125m0 0h1.125m-1.125-2.25h1.125m-1.125-2.25h1.125m-1.125-2.25h1.125m-1.125-2.25h1.125m0 0h1.125m-1.125 2.25h1.125m-1.125 2.25h1.125m-1.125 2.25h1.125m-1.125 2.25h1.125m0 0h1.125m-1.125-2.25h1.125m-1.125-2.25h1.125m-1.125-2.25h1.125m-1.125-2.25h1.125m0 0h1.125m-1.125 2.25h1.125m-1.125 2.25h1.125m-1.125 2.25h1.125m-1.125 2.25h1.125m0 0h1.125m-1.125-2.25h1.125m-1.125-2.25h1.125m-1.125-2.25h1.125m-1.125-2.25h1.125m0 0h1.125m-1.125 2.25h1.125m-1.125 2.25h1.125m-1.125 2.25h1.125m-1.125 2.25h1.125m0 0H108m-1.125-2.25H108m-1.125-2.25H108m-1.125-2.25H108m0-2.25h1.125m-1.125 2.25h1.125m-1.125 2.25h1.125m-1.125 2.25h1.125m-1.125 2.25h1.125m0 0h1.125m-1.125-2.25h1.125m-1.125-2.25h1.125m-1.125-2.25h1.125m-1.125-2.25h1.125m0 0h1.125m-1.125 2.25h1.125m-1.125 2.25h1.125m-1.125 2.25h1.125m-1.125 2.25h1.125m0 0h1.125m-1.125-2.25h1.125m-1.125-2.25h1.125m-1.125-2.25h1.125m-1.125-2.25h1.125m0 0h1.125m-1.125 2.25h1.125m-1.125 2.25h1.125m-1.125 2.25h1.125m-1.125 2.25h1.125m0 0h1.125m-1.125-2.25h1.125m-1.125-2.25h1.125m-1.125-2.25h1.125m-1.125-2.25h1.125m0-2.25h1.125m-1.125 2.25h1.125m-1.125 2.25h1.125m-1.125 2.25h1.125m-1.125 2.25h1.125m-1.125 2.25h1.125m0 0H117m-1.125-2.25H117m-1.125-2.25H117m-1.125-2.25H117m-1.125-2.25H117m0 0h1.125m-1.125 2.25h1.125m-1.125 2.25h1.125m-1.125 2.25h1.125m-1.125 2.25h1.125m0 0h1.125m-1.125-2.25h1.125m-1.125-2.25h1.125m-1.125-2.25h1.125m-1.125-2.25h1.125m0 0h1.125m-1.125 2.25h1.125m-1.125 2.25h1.125m-1.125 2.25h1.125m-1.125 2.25h1.125m0 0h1.125m-1.125-2.25h1.125m-1.125-2.25h1.125m-1.125-2.25h1.125m-1.125-2.25h1.125m0 0h1.125m-1.125 2.25h1.125m-1.125 2.25h1.125m-1.125 2.25h1.125m-1.125 2.25h1.125m0 0h1.125m-1.125-2.25h1.125m-1.125-2.25h1.125m-1.125-2.25h1.125m-1.125-2.25h1.125m0 0h1.125m-1.125 2.25h1.125m-1.125 2.25h1.125m-1.125 2.25h1.125m-1.125 2.25h1.125m0 0H126m-1.125-2.25H126m-1.125-2.25H126m-1.125-2.25H126m-1.125-2.25H126m0 0h1.125m-1.125 2.25h1.125m-1.125 2.25h1.125m-1.125 2.25h1.125m-1.125 2.25h1.125m0 0h1.125m-1.125-2.25h1.125m-1.125-2.25h1.125m-1.125-2.25h1.125m-1.125-2.25h1.125m0 0h1.125m-1.125 2.25h1.125m-1.125 2.25h1.125m-1.125 2.25h1.125m-1.125 2.25h1.125m0 0h1.125m-1.125-2.25h1.125m-1.125-2.25h1.125m-1.125-2.25h1.125m-1.125-2.25h1.125m0 0h1.125m-1.125 2.25h1.125m-1.125 2.25h1.125m-1.125 2.25h1.125m-1.125 2.25h1.125m0 0h1.125m-1.125-2.25h1.125m-1.125-2.25h1.125m-1.125-2.25h1.125m-1.125-2.25h1.125m0 0h1.125m-1.125 2.25h1.125m-1.125 2.25h1.125m-1.125 2.25h1.125m-1.125 2.25h1.125m0 0H135m-1.125-2.25H135m-1.125-2.25H135m-1.125-2.25H135m-1.125-2.25H135m0 0h1.125m-1.125 2.25h1.125m-1.125 2.25h1.125m-1.125 2.25h1.125m-1.125 2.25h1.125m0 0h1.125m-1.125-2.25h1.125m-1.125-2.25h1.125m-1.125-2.25h1.125m-1.125-2.25h1.125m0 0h1.125m-1.125 2.25h1.125m-1.125 2.25h1.125m-1.125 2.25h1.125m-1.125 2.25h1.125m0 0h1.125m-1.125-2.25h1.125m-1.125-2.25h1.125m-1.125-2.25h1.125m-1.125-2.25h1.125m0 0h1.125m-1.125 2.25h1.125m-1.125 2.25h1.125m-1.125 2.25h1.125m-1.125 2.25h1.125m0 0h1.125m-1.125-2.25h1.125m-1.125-2.25h1.125m-1.125-2.25h1.125m-1.125-2.25h1.125m0 0h1.125m-1.125 2.25h1.125m-1.125 2.25h1.125m-1.125 2.25h1.125m-1.125 2.25h1.125m0 0H144m-1.125-2.25H144m-1.125-2.25H144m-1.125-2.25H144m-1.125-2.25H144m0 0h1.125m-1.125 2.25h1.125m-1.125 2.25h1.125m-1.125 2.25h1.125m-1.125 2.25h1.125m0 0h1.125m-1.125-2.25h1.125m-1.125-2.25h1.125m-1.125-2.25h1.125m-1.125-2.25h1.125m0 0h1.125m-1.125 2.25h1.125m-1.125 2.25h1.125m-1.125 2.25h1.125m-1.125 2.25h1.125m0 0h1.125m-1.125-2.25h1.125m-1.125-2.25h1.125m-1.125-2.25h1.125m-1.125-2.25h1.125m0 0h1.125m-1.125 2.25h1.125m-1.125 2.25h1.125m-1.125 2.25h1.125m-1.125 2.25h1.125m0 0h1.125m-1.125-2.25h1.125m-1.125-2.25h1.125m-1.125-2.25h1.125m-1.125-2.25h1.125m0 0h1.125m-1.125 2.25h1.125m-1.125 2.25h1.125m-1.125 2.25h1.125m-1.125 2.25h1.125m0 0H153m-1.125-2.25H153m-1.125-2.25H153m-1.125-2.25H153m-1.125-2.25H153m0 0h1.125m-1.125 2.25h1.125m-1.125 2.25h1.125m-1.125 2.25h1.125m-1.125 2.25h1.125m0 0h1.125m-1.125-2.25h1.125m-1.125-2.25h1.125m-1.125-2.25h1.125m-1.125-2.25h1.125m0 0h1.125m-1.125 2.25h1.125m-1.125 2.25h1.125m-1.125 2.25h1.125m-1.125 2.25h1.125m0 0h1.125m-1.125-2.25h1.125m-1.125-2.25h1.125m-1.125-2.25h1.125m-1.125-2.25h1.125m0 0h1.125m-1.125 2.25h1.125m-1.125 2.25h1.125m-1.125 2.25h1.125m-1.125 2.25h1.125m0 0h1.125m-1.125-2.25h1.125m-1.125-2.25h1.125m-1.125-2.25h1.125m-1.125-2.25h1.125m0 0h1.125m-1.125 2.25h1.125m-1.125 2.25h1.125m-1.125 2.25h1.125m-1.125 2.25h1.125m0 0H162m-1.125-2.25H162m-1.125-2.25H162m-1.125-2.25H162m-1.125-2.25H162m0 0h1.125m-1.125 2.25h1.125m-1.125 2.25h1.125m-1.125 2.25h1.125m-1.125 2.25h1.125m0 0h1.125m-1.125-2.25h1.125m-1.125-2.25h1.125m-1.125-2.25h1.125m-1.125-2.25h1.125m0 0h1.125m-1.125 2.25h1.125m-1.125 2.25h1.125m-1.125 2.25h1.125m-1.125 2.25h1.125m0 0h1.125m-1.125-2.25h1.125m-1.125-2.25h1.125m-1.125-2.25h1.125m0-2.25h1.125m-1.125 2.25h1.125m-1.125 2.25h1.125m-1.125 2.25h1.125m-1.125 2.25h1.125m0 0h1.125m-1.125-2.25h1.125m-1.125-2.25h1.125m-1.125-2.25h1.125m-1.125-2.25h1.125m0 0h1.125m-1.125 2.25h1.125m-1.125 2.25h1.125m-1.125 2.25h1.125m-1.125 2.25h1.125m0 0H171m-1.125-2.25H171m-1.125-2.25H171m-1.125-2.25H171m-1.125-2.25H171m0 0h1.125m-1.125 2.25h1.125m-1.125 2.25h1.125m-1.125 2.25h1.125m-1.125 2.25h1.125m0 0h1.125m-1.125-2.25h1.125m-1.125-2.25h1.125m-1.125-2.25h1.125m-1.125-2.25h1.125m0 0h1.125m-1.125 2.25h1.125m-1.125 2.25h1.125m-1.125 2.25h1.125m-1.125 2.25h1.125m0 0h1.125m-1.125-2.25h1.125m-1.125-2.25h1.125m-1.125-2.25h1.125m-1.125-2.25h1.125m0 0h1.125m-1.125 2.25h1.125m-1.125 2.25h1.125m-1.125 2.25h1.125m-1.125 2.25h1.125m0 0h1.125m-1.125-2.25h1.125m-1.125-2.25h1.125m-1.125-2.25h1.125m-1.125-2.25h1.125m0 0h1.125m-1.125 2.25h1.125m-1.125 2.25h1.125m-1.125 2.25h1.125m-1.125 2.25h1.125m0 0H180m-1.125-2.25H180m-1.125-2.25H180m-1.125-2.25H180m-1.125-2.25H180m0 0h1.125m-1.125 2.25h1.125m-1.125 2.25h1.125m-1.125 2.25h1.125m-1.125 2.25h1.125m0 0h1.125m-1.125-2.25h1.125m-1.125-2.25h1.125m-1.125-2.25h1.125m-1.125-2.25h1.125m0 0h1.125m-1.125 2.25h1.125m-1.125 2.25h1.125m-1.125 2.25h1.125m-1.125 2.25h1.125m0 0h1.125m-1.125-2.25h1.125m-1.125-2.25h1.125m-1.125-2.25h1.125m-1.125-2.25h1.125m0 0h1.125m-1.125 2.25h1.125m-1.125 2.25h1.125m-1.125 2.25h1.125m-1.125 2.25h1.125m0 0h1.125m-1.125-2.25h1.125m-1.125-2.25h1.125m-1.125-2.25h1.125m-1.125-2.25h1.125m0 0h1.125m-1.125 2.25h1.125m-1.125 2.25h1.125m-1.125 2.25h1.125m-1.125 2.25h1.125m0 0H189m-1.125-2.25H189m-1.125-2.25H189m-1.125-2.25H189m0-2.25h1.125m-1.125 2.25h1.125m-1.125 2.25h1.125m-1.125 2.25h1.125m-1.125 2.25h1.125m0 0h1.125m-1.125-2.25h1.125m-1.125-2.25h1.125m-1.125-2.25h1.125m-1.125-2.25h1.125m0 0h1.125m-1.125 2.25h1.125m-1.125 2.25h1.125m-1.125 2.25h1.125m-1.125 2.25h1.125m0 0h1.125m-1.125-2.25h1.125m-1.125-2.25h1.125m-1.125-2.25h1.125m-1.125-2.25h1.125m0 0h1.125m-1.125 2.25h1.125m-1.125 2.25h1.125m-1.125 2.25h1.125m-1.125 2.25h1.125m0 0h1.125m-1.125-2.25h1.125m-1.125-2.25h1.125m-1.125-2.25h1.125m-1.125-2.25h1.125m0 0h1.125m-1.125 2.25h1.125m-1.125 2.25h1.125m-1.125 2.25h1.125m-1.125 2.25h1.125m0 0H198m-1.125-2.25H198m-1.125-2.25H198m-1.125-2.25H198m-1.125-2.25H198m0 0h1.125m-1.125 2.25h1.125m-1.125 2.25h1.125m-1.125 2.25h1.125m-1.125 2.25h1.125m0 0h1.125m-1.125-2.25h1.125m-1.125-2.25h1.125m-1.125-2.25h1.125m-1.125-2.25h1.125m0 0h1.125m-1.125 2.25h1.125m-1.125 2.25h1.125m-1.125 2.25h1.125m-1.125 2.25h1.125m0 0h1.125m-1.125-2.25h1.125m-1.125-2.25h1.125m-1.125-2.25h1.125m-1.125-2.25h1.125m0 0h1.125m-1.125 2.25h1.125m-1.125 2.25h1.125m-1.125 2.25h1.125m-1.125 2.25h1.125m0 0h1.125m-1.125-2.25h1.125m-1.125-2.25h1.125m-1.125-2.25h1.125m0-2.25h1.125m-1.125 2.25h1.125m-1.125 2.25h1.125m-1.125 2.25h1.125m-1.125 2.25h1.125m0 0H207m-1.125-2.25H207m-1.125-2.25H207m-1.125-2.25H207m-1.125-2.25H207m0 0h1.125m-1.125 2.25h1.125m-1.125 2.25h1.125m-1.125 2.25h1.125m-1.125 2.25h1.125m0 0h1.125m-1.125-2.25h1.125m-1.125-2.25h1.125m-1.125-2.25h1.125m-1.125-2.25h1.125m0 0h1.125m-1.125 2.25h1.125m-1.125 2.25h1.125m-1.125 2.25h1.125m-1.125 2.25h1.125m0 0h1.125m-1.125-2.25h1.125m-1.125-2.25h1.125m-1.125-2.25h1.125m-1.125-2.25h1.125m0 0h1.125m-1.125 2.25h1.125m-1.125 2.25h1.125m-1.125 2.25h1.125m-1.125 2.25h1.125m0 0h1.125m-1.125-2.25h1.125m-1.125-2.25h1.125m-1.125-2.25h1.125m-1.125-2.25h1.125m0 0h1.125m-1.125 2.25h1.125m-1.125 2.25h1.125m-1.125 2.25h1.125m-1.125 2.25h1.125m0 0H216m-1.125-2.25H216m-1.125-2.25H216m-1.125-2.25H216m-1.125-2.25H216m0 0h1.125m-1.125 2.25h1.125m-1.125 2.25h1.125m-1.125 2.25h1.125m-1.125 2.25h1.125m0 0h1.125m-1.125-2.25h1.125m-1.125-2.25h1.125m-1.125-2.25h1.125m0-2.25h1.125m-1.125 2.25h1.125m-1.125 2.25h1.125m-1.125 2.25h1.125m-1.125 2.25h1.125m0 0h1.125m-1.125-2.25h1.125m-1.125-2.25h1.125m-1.125-2.25h1.125m-1.125-2.25h1.125m0 0h1.125m-1.125 2.25h1.125m-1.125 2.25h1.125m-1.125 2.25h1.125m-1.125 2.25h1.125m0 0h1.125m-1.125-2.25h1.125m-1.125-2.25h1.125m-1.125-2.25h1.125m-1.125-2.25h1.125m0 0h1.125m-1.125 2.25h1.125m-1.125 2.25h1.125m-1.125 2.25h1.125m-1.125 2.25h1.125m-1.125 2.25h1.125m0-2.25H225m-1.125-2.25H225m-1.125-2.25H225m-1.125-2.25H225m-1.125-2.25H225m0 0h1.125m-1.125 2.25h1.125m-1.125 2.25h1.125m-1.125 2.25h1.125m-1.125 2.25h1.125m0 0h1.125m-1.125-2.25h1.125m-1.125-2.25h1.125m-1.125-2.25h1.125m-1.125-2.25h1.125m0 0h1.125m-1.125 2.25h1.125m-1.125 2.25h1.125m-1.125 2.25h1.125m-1.125 2.25h1.125m0 0h1.125m-1.125-2.25h1.125m-1.125-2.25h1.125m-1.125-2.25h1.125m-1.125-2.25h1.125m0 2.25h1.125m-1.125 2.25h1.125m-1.125 2.25h1.125m-1.125 2.25h1.125m0 0h1.125m-1.125-2.25h1.125m-1.125-2.25h1.125m-1.125-2.25h1.125m-1.125-2.25h1.125m0 0h1.125m-1.125 2.25h1.125m-1.125 2.25h1.125m-1.125 2.25h1.125m-1.125 2.25h1.125m0 0H234m-1.125-2.25H234m-1.125-2.25H234m-1.125-2.25H234m-1.125-2.25H234m0 0h1.125m-1.125 2.25h1.125m-1.125 2.25h1.125m-1.125 2.25h1.125m-1.125 2.25h1.125m0 0h1.125m-1.125-2.25h1.125m-1.125-2.25h1.125m-1.125-2.25h1.125m-1.125-2.25h1.125m0 0h1.125m-1.125 2.25h1.125m-1.125 2.25h1.125m-1.125 2.25h1.125m-1.125 2.25h1.125m0 0h1.125m-1.125-2.25h1.125m-1.125-2.25h1.125m-1.125-2.25h1.125m-1.125-2.25h1.125m0 0h1.125m-1.125 2.25h1.125m-1.125 2.25h1.125m-1.125 2.25h1.125m-1.125 2.25h1.125m0 0h1.125m-1.125-2.25h1.125m-1.125-2.25h1.125m-1.125-2.25h1.125m-1.125-2.25h1.125m0 0h1.125m-1.125 2.25h1.125m-1.125 2.25h1.125m-1.125 2.25h1.125m-1.125 2.25h1.125m0 0H243m-1.125-2.25H243m-1.125-2.25H243m-1.125-2.25H243m-1.125-2.25H243m0 0h1.125m-1.125 2.25h1.125m-1.125 2.25h1.125m-1.125 2.25h1.125m-1.125 2.25h1.125m0 0h1.125m-1.125-2.25h1.125m-1.125-2.25h1.125m-1.125-2.25h1.125m0-2.25h1.125m-1.125 2.25h1.125m-1.125 2.25h1.125m-1.125 2.25h1.125m-1.125 2.25h1.125m0 0h1.125m-1.125-2.25h1.125m-1.125-2.25h1.125m-1.125-2.25h1.125m-1.125-2.25h1.125m0 0h1.125m-1.125 2.25h1.125m-1.125 2.25h1.125m-1.125 2.25h1.125m-1.125 2.25h1.125m0 0h1.125m-1.125-2.25h1.125m-1.125-2.25h1.125m-1.125-2.25h1.125m-1.125-2.25h1.125m0 0h1.125m-1.125 2.25h1.125m-1.125 2.25h1.125m-1.125 2.25h1.125m-1.125 2.25h1.125m0 0H252m-1.125-2.25H252m-1.125-2.25H252m-1.125-2.25H252m-1.125-2.25H252m0 0h1.125m-1.125 2.25h1.125m-1.125 2.25h1.125m-1.125 2.25h1.125m-1.125 2.25h1.125m0 0h1.125m-1.125-2.25h1.125m-1.125-2.25h1.125m-1.125-2.25h1.125m-1.125-2.25h1.125m0 0h1.125m-1.125 2.25h1.125m-1.125 2.25h1.125m-1.125 2.25h1.125m-1.125 2.25h1.125m0 0h1.125m-1.125-2.25h1.125m-1.125-2.25h1.125m-1.125-2.25h1.125m-1.125-2.25h1.125m0 0h1.125m-1.125 2.25h1.125m-1.125 2.25h1.125m-1.125 2.25h1.125m-1.125 2.25h1.125m0 0h1.125m-1.125-2.25h1.125m-1.125-2.25h1.125m-1.125-2.25h1.125m-1.125-2.25h1.125m0 0h1.125m-1.125 2.25h1.125m-1.125 2.25h1.125m-1.125 2.25h1.125m-1.125 2.25h1.125m0 0H261m-1.125-2.25H261m-1.125-2.25H261m-1.125-2.25H261m-1.125-2.25H261m0 0h1.125m-1.125 2.25h1.125m-1.125 2.25h1.125m-1.125 2.25h1.125m-1.125 2.25h1.125m0 0h1.125m-1.125-2.25h1.125m-1.125-2.25h1.125m-1.125-2.25h1.125m-1.125-2.25h1.125m0 0h1.125m-1.125 2.25h1.125m-1.125 2.25h1.125m-1.125 2.25h1.125m-1.125 2.25h1.125m0 0h1.125m-1.125-2.25h1.125m-1.125-2.25h1.125m-1.125-2.25h1.125m-1.125-2.25h1.125m0 0h1.125m-1.125 2.25h1.125m-1.125 2.25h1.125m-1.125 2.25h1.125m-1.125 2.25h1.125m0 0h1.125m-1.125-2.25h1.125m-1.125-2.25h1.125m-1.125-2.25h1.125m-1.125-2.25h1.125m0 0h1.125m-1.125 2.25h1.125m-1.125 2.25h1.125m-1.125 2.25h1.125m-1.125 2.25h1.125m-1.125 2.25h1.125m0-2.25H270m-1.125-2.25H270m-1.125-2.25H270m-1.125-2.25H270m-1.125-2.25H270m0 0h1.125m-1.125 2.25h1.125m-1.125 2.25h1.125m-1.125 2.25h1.125m-1.125 2.25h1.125m0 0h1.125m-1.125-2.25h1.125m-1.125-2.25h1.125m-1.125-2.25h1.125m-1.125-2.25h1.125m0 0h1.125m-1.125 2.25h1.125m-1.125 2.25h1.125m-1.125 2.25h1.125m-1.125 2.25h1.125m0 0h1.125m-1.125-2.25h1.125m-1.125-2.25h1.125m-1.125-2.25h1.125m-1.125-2.25h1.125m0 0h1.125m-1.125 2.25h1.125m-1.125 2.25h1.125m-1.125 2.25h1.125m-1.125 2.25h1.125m0 0h1.125m-1.125-2.25h1.125m-1.125-2.25h1.125m-1.125-2.25h1.125m-1.125-2.25h1.125m0 0h1.125m-1.125 2.25h1.125m-1.125 2.25h1.125m-1.125 2.25h1.125m-1.125 2.25h1.125m0 0H279m-1.125-2.25H279m-1.125-2.25H279m-1.125-2.25H279m-1.125-2.25H279m0 0h1.125m-1.125 2.25h1.125m-1.125 2.25h1.125m-1.125 2.25h1.125m-1.125 2.25h1.125m0 0h1.125m-1.125-2.25h1.125m-1.125-2.25h1.125m-1.125-2.25h1.125m-1.125-2.25h1.125m0 0h1.125m-1.125 2.25h1.125m-1.125 2.25h1.125m-1.125 2.25h1.125m-1.125 2.25h1.125m0 0h1.125m-1.125-2.25h1.125m-1.125-2.25h1.125m-1.125-2.25h1.125m-1.125-2.25h1.125m0 0h1.125m-1.125 2.25h1.125m-1.125 2.25h1.125m-1.125 2.25h1.125m-1.125 2.25h1.125m0 0h1.125m-1.125-2.25h1.125m-1.125-2.25h1.125m-1.125-2.25h1.125m-1.125-2.25h1.125m0 0h1.125m-1.125 2.25h1.125m-1.125 2.25h1.125m-1.125 2.25h1.125m-1.125 2.25h1.125m0 0H288m-1.125-2.25H288m-1.125-2.25H288m-1.125-2.25H288m0-2.25h1.125m-1.125 2.25h1.125m-1.125 2.25h1.125m-1.125 2.25h1.125m-1.125 2.25h1.125m0 0h1.125m-1.125-2.25h1.125m-1.125-2.25h1.125m-1.125-2.25h1.125m-1.125-2.25h1.125m0 0h1.125m-1.125 2.25h1.125m-1.125 2.25h1.125m-1.125 2.25h1.125m-1.125 2.25h1.125m0 0h1.125m-1.125-2.25h1.125m-1.125-2.25h1.125m-1.125-2.25h1.125m-1.125-2.25h1.125m0 0h1.125m-1.125 2.25h1.125m-1.125 2.25h1.125m-1.125 2.25h1.125m-1.125 2.25h1.125m0 0h1.125m-1.125-2.25h1.125m-1.125-2.25h1.125m-1.125-2.25h1.125m-1.125-2.25h1.125m0 0h1.125m-1.125 2.25h1.125m-1.125 2.25h1.125m-1.125 2.25h1.125m-1.125 2.25h1.125m0 0H297m-1.125-2.25H297m-1.125-2.25H297m-1.125-2.25H297m-1.125-2.25H297m0 0h1.125m-1.125 2.25h1.125m-1.125 2.25h1.125m-1.125 2.25h1.125m-1.125 2.25h1.125m0 0h1.125m-1.125-2.25h1.125m-1.125-2.25h1.125m-1.125-2.25h1.125m-1.125-2.25h1.125m0 0h1.125m-1.125 2.25h1.125m-1.125 2.25h1.125m-1.125 2.25h1.125m-1.125 2.25h1.125m0 0h1.125m-1.125-2.25h1.125m-1.125-2.25h1.125m-1.125-2.25h1.125m0-2.25h1.125m-1.125 2.25h1.125m-1.125 2.25h1.125m-1.125 2.25h1.125m-1.125 2.25h1.125m0 0h1.125m-1.125-2.25h1.125m-1.125-2.25h1.125m-1.125-2.25h1.125m-1.125-2.25h1.125m0 0h1.125m-1.125 2.25h1.125m-1.125 2.25h1.125m-1.125 2.25h1.125m-1.125 2.25h1.125m0 0H306m-1.125-2.25H306m-1.125-2.25H306m-1.125-2.25H306m-1.125-2.25H306m0 0h1.125m-1.125 2.25h1.125m-1.125 2.25h1.125m-1.125 2.25h1.125m-1.125 2.25h1.125m0 0h1.125m-1.125-2.25h1.125m-1.125-2.25h1.125m-1.125-2.25h1.125m-1.125-2.25h1.125m0 0h1.125m-1.125 2.25h1.125m-1.125 2.25h1.125m-1.125 2.25h1.125m-1.125 2.25h1.125m0 0h1.125m-1.125-2.25h1.125m-1.125-2.25h1.125m-1.125-2.25h1.125m-1.125-2.25h1.125m-1.125-2.25h1.125m-1.125-2.25h1.125m-1.125-2.25h1.125m-1.125-2.25h1.125m-1.125-2.25h1.125m-1.125-2.25h1.125m-1.125-2.25h1.125m-1.125-2.25h1.125m-1.125-2.25h1.125m-1.125-2.25h1.125m-1.125-2.25h1.125m-1.125-2.25h1.125m-1.125-2.25h1.125m-1.125-2.25h1.125m-1.125-2.25h1.125m-1.125-2.25h1.125m-1.125-2.25h1.125m-1.125-2.25h1.125m-1.125-2.25h1.125m-1.125-2.25h1.125m-1.125-2.25h1.125m-1.125-2.25h1.125m-1.125-2.25h1.125m-1.125-2.25h1.125m-1.125-2.25h1.125m-1.125-2.25h1.125m-1.125-2.25h1.125m-1.125-2.25h1.125m-1.125-2.25h1.125m-1.125-2.25h1.125m-1.125-2.25h1.125m-1.125-2.25h1.125m0-18h1.125m-1.125 2.25h1.125m-1.125 2.25h1.125m-1.125 2.25h1.125m-1.125 2.25h1.125m-1.125 2.25h1.125m-1.125 2.25h1.125m-1.125 2.25h1.125m-1.125 2.25h1.125m-1.125 2.25h1.125m-1.125 2.25h1.125m0-18h1.125m-1.125-2.25h1.125m-1.125-2.25h1.125m-1.125-2.25h1.125m0 0h1.125m-1.125 2.25h1.125m-1.125 2.25h1.125m-1.125 2.25h1.125m-1.125 2.25h1.125m0 0H315m-1.125-2.25H315m-1.125-2.25H315m-1.125-2.25H315m-1.125-2.25H315m0 2.25h1.125m-1.125 2.25h1.125m-1.125 2.25h1.125m-1.125 2.25h1.125m0 0h1.125m-1.125-2.25h1.125m-1.125-2.25h1.125m-1.125-2.25h1.125m0 0h1.125m-1.125 2.25h1.125m-1.125 2.25h1.125m-1.125 2.25h1.125m0 0h1.125m-1.125-2.25h1.125m-1.125-2.25h1.125m-1.125-2.25h1.125m0-2.25h1.125m-1.125 2.25h1.125m-1.125 2.25h1.125m-1.125 2.25h1.125m-1.125 2.25h1.125m0 0h1.125m-1.125-2.25h1.125m-1.125-2.25h1.125m-1.125-2.25h1.125m-1.125-2.25h1.125m0 2.25h1.125m-1.125 2.25h1.125m-1.125 2.25h1.125m-1.125 2.25h1.125m0 0H324m-1.125-2.25H324m-1.125-2.25H324m-1.125-2.25H324m0-2.25h1.125m-1.125 2.25h1.125m-1.125 2.25h1.125m-1.125 2.25h1.125m-1.125 2.25h1.125m0 0h1.125m-1.125-2.25h1.125m-1.125-2.25h1.125m-1.125-2.25h1.125m0 0h1.125m-1.125 2.25h1.125m-1.125 2.25h1.125m-1.125 2.25h1.125m0 0h1.125m-1.125-2.25h1.125m-1.125-2.25h1.125m-1.125-2.25h1.125m0 0h1.125m-1.125 2.25h1.125m-1.125 2.25h1.125m-1.125 2.25h1.125m0 0h1.125m-1.125-2.25h1.125m-1.125-2.25h1.125m-1.125-2.25h1.125m0 0h1.125m-1.125 2.25h1.125m-1.125 2.25h1.125m-1.125 2.25h1.125m0 0H333m-1.125-2.25H333m-1.125-2.25H333m-1.125-2.25H333m0 0h1.125m-1.125 2.25h1.125m-1.125 2.25h1.125m-1.125 2.25h1.125m-1.125 2.25h1.125m0 0h1.125m-1.125-2.25h1.125m-1.125-2.25h1.125m-1.125-2.25h1.125m-1.125-2.25h1.125m0 0h1.125m-1.125 2.25h1.125m-1.125 2.25h1.125m-1.125 2.25h1.125m0 0h1.125m-1.125-2.25h1.125m-1.125-2.25h1.125m-1.125-2.25h1.125m0 0h1.125m-1.125 2.25h1.125m-1.125 2.25h1.125m-1.125 2.25h1.125m-1.125 2.25h1.125m0-2.25h1.125m-1.125-2.25h1.125m-1.125-2.25h1.125m-1.125-2.25h1.125m0 0h1.125m-1.125 2.25h1.125m-1.125 2.25h1.125m-1.125 2.25h1.125m0 0H342m-1.125-2.25H342m-1.125-2.25H342m-1.125-2.25H342m0 0h1.125m-1.125 2.25h1.125m-1.125 2.25h1.125m-1.125 2.25h1.125m0 0h1.125m-1.125-2.25h1.125m-1.125-2.25h1.125m-1.125-2.25h1.125m0 0h1.125m-1.125 2.25h1.125m-1.125 2.25h1.125m-1.125 2.25h1.125m0 2.25h1.125m-1.125-2.25h1.125m-1.125-2.25h1.125m-1.125-2.25h1.125m-1.125-2.25h1.125m0 0h1.125m-1.125 2.25h1.125m-1.125 2.25h1.125m-1.125 2.25h1.125m0 2.25h1.125m-1.125-2.25h1.125m-1.125-2.25h1.125m-1.125-2.25h1.125m-1.125-2.25h1.125m0 0h1.125m-1.125 2.25h1.125m-1.125 2.25h1.125m-1.125 2.25h1.125m0 0H351m-1.125-2.25H351m-1.125-2.25H351m-1.125-2.25H351m0 0h1.125m-1.125 2.25h1.125m-1.125 2.25h1.125m-1.125 2.25h1.125m-1.125 2.25h1.125m0-2.25h1.125m-1.125-2.25h1.125m-1.125-2.25h1.125m-1.125-2.25h1.125m0 0h1.125m-1.125 2.25h1.125m-1.125 2.25h1.125m-1.125 2.25h1.125m0 0h1.125m-1.125-2.25h1.125m-1.125-2.25h1.125m-1.125-2.25h1.125m0 0h1.125m-1.125 2.25h1.125m-1.125 2.25h1.125m-1.125 2.25h1.125m0 0h1.125m-1.125-2.25h1.125m-1.125-2.25h1.125m-1.125-2.25h1.125m0 0h1.125m-1.125 2.25h1.125m-1.125 2.25h1.125m-1.125 2.25h1.125m0 0H360m-1.125-2.25H360m-1.125-2.25H360m-1.125-2.25H360m0 0h1.125m-1.125 2.25h1.125m-1.125 2.25h1.125m-1.125 2.25h1.125m-1.125 2.25h1.125m0 0h1.125m-1.125-2.25h1.125m-1.125-2.25h1.125m-1.125-2.25h1.125m-1.125-2.25h1.125m0 0h1.125m-1.125 2.25h1.125m-1.125 2.25h1.125m-1.125 2.25h1.125m0 0h1.125m-1.125-2.25h1.125m-1.125-2.25h1.125m-1.125-2.25h1.125m0 0h1.125m-1.125 2.25h1.125m-1.125 2.25h1.125m-1.125 2.25h1.125m0 0h1.125m-1.125-2.25h1.125m-1.125-2.25h1.125m-1.125-2.25h1.125m0 0h1.125m-1.125 2.25h1.125m-1.125 2.25h1.125m-1.125 2.25h1.125m-1.125 2.25h1.125m0-2.25H369m-1.125-2.25H369m-1.125-2.25H369m-1.125-2.25H369m0 0h1.125m-1.125 2.25h1.125m-1.125 2.25h1.125m-1.125 2.25h1.125m0 0h1.125m-1.125-2.25h1.125m-1.125-2.25h1.125m-1.125-2.25h1.125m0 0h1.125m-1.125 2.25h1.125m-1.125 2.25h1.125m-1.125 2.25h1.125m-1.125 2.25h1.125m0 0h1.125m-1.125-2.25h1.125m-1.125-2.25h1.125m-1.125-2.25h1.125m-1.125-2.25h1.125m0 0h1.125m-1.125 2.25h1.125m-1.125 2.25h1.125m-1.125 2.25h1.125m-1.125 2.25h1.125m0 0h1.125m-1.125-2.25h1.125m-1.125-2.25h1.125m-1.125-2.25h1.125m-1.125-2.25h1.125m0 0h1.125m-1.125 2.25h1.125m-1.125 2.25h1.125m-1.125 2.25h1.125m-1.125 2.25h1.125m0-2.25H378m-1.125-2.25H378m-1.125-2.25H378m-1.125-2.25H378m0 0h1.125m-1.125 2.25h1.125m-1.125 2.25h1.125m-1.125 2.25h1.125m0 0h1.125m-1.125-2.25h1.125m-1.125-2.25h1.125m-1.125-2.25h1.125m0 0h1.125m-1.125 2.25h1.125m-1.125 2.25h1.125m-1.125 2.25h1.125m0 0h1.125m-1.125-2.25h1.125m-1.125-2.25h1.125m-1.125-2.25h1.125m0 0h1.125m-1.125 2.25h1.125m-1.125 2.25h1.125m-1.125 2.25h1.125m-1.125 2.25h1.125m0 0h1.125m-1.125-2.25h1.125m-1.125-2.25h1.125m-1.125-2.25h1.125m-1.125-2.25h1.125m0 0h1.125m-1.125 2.25h1.125m-1.125 2.25h1.125m-1.125 2.25h1.125m0 2.25H387m-1.125-2.25H387m-1.125-2.25H387m-1.125-2.25H387m-1.125-2.25H387m0 0h1.125m-1.125 2.25h1.125m-1.125 2.25h1.125m-1.125 2.25h1.125m0 0h1.125m-1.125-2.25h1.125m-1.125-2.25h1.125m-1.125-2.25h1.125m0 0h1.125m-1.125 2.25h1.125m-1.125 2.25h1.125m-1.125 2.25h1.125m-1.125 2.25h1.125m0 0h1.125m-1.125-2.25h1.125m-1.125-2.25h1.125m-1.125-2.25h1.125m-1.125-2.25h1.125m0 0h1.125m-1.125 2.25h1.125m-1.125 2.25h1.125m-1.125 2.25h1.125m0 0h1.125m-1.125-2.25h1.125m-1.125-2.25h1.125m-1.125-2.25h1.125m0 0h1.125m-1.125 2.25h1.125m-1.125 2.25h1.125m-1.125 2.25h1.125m0-6.75H396m-1.125 2.25H396m-1.125 2.25H396m-1.125 2.25H396m-1.125 2.25H396m-1.125 49.5H396m-1.125 38.25H396m0 2.25h1.125m-1.125-4.5h1.125m-1.125-2.25h1.125M396 219.938h1.125M396 195.188h1.125M396 174.938h1.125m-1.125-2.25h1.125m-1.125-2.25h1.125m-1.125-2.25h1.125m-1.125-2.25h1.125m0 0h1.125m-1.125 2.25h1.125m-1.125 2.25h1.125m-1.125 2.25h1.125m-1.125 20.25h1.125m-1.125 15.75h1.125m-1.125 11.25h1.125m-1.125 11.25h1.125m-1.125 2.25h1.125m-1.125 6.75h1.125m-1.125 15.75h1.125m-1.125 2.25h1.125m-1.125 2.25h1.125m-1.125 2.25h1.125m-1.125 2.25h1.125m0 0h1.125m-1.125-2.25h1.125m-1.125-2.25h1.125m-1.125-2.25h1.125m-1.125-2.25h1.125m-1.125-2.25h1.125m-1.125-4.5h1.125m-1.125-4.5h1.125m-1.125-2.25h1.125m-1.125-4.5h1.125m-1.125-2.25h1.125m-1.125-15.75h1.125m-1.125-9h1.125m-1.125-18h1.125m-1.125-4.5h1.125m-1.125-15.75h1.125m-1.125-2.25h1.125m-1.125-2.25h1.125m-1.125-2.25h1.125m0 0h1.125m-1.125 2.25h1.125m-1.125 2.25h1.125m-1.125 2.25h1.125m-1.125 6.75h1.125m-1.125 2.25h1.125m-1.125 9h1.125m-1.125 18h1.125m-1.125 4.5h1.125m-1.125 9h1.125m-1.125 11.25h1.125m-1.125 4.5h1.125m-1.125 4.5h1.125m-1.125 2.25h1.125m-1.125 2.25h1.125m-1.125 9h1.125m-1.125 2.25h1.125m-1.125 2.25h1.125m-1.125 2.25h1.125m-1.125 2.25h1.125m0 0h1.125m-1.125-2.25h1.125m-1.125-2.25h1.125m-1.125-2.25h1.125m-1.125-2.25h1.125m-1.125-4.5h1.125m-1.125-4.5h1.125m-1.125-2.25h1.125m-1.125-11.25h1.125m-1.125-6.75h1.125m-1.125-9h1.125m-1.125-4.5h1.125m-1.125-2.25h1.125m-1.125-6.75h1.125m-1.125-6.75h1.125m-1.125-6.75h1.125m-1.125-15.75h1.125m-1.125-2.25h1.125m-1.125-2.25h1.125m-1.125-2.25h1.125m-1.125-2.25h1.125m0 0h1.125m-1.125 2.25h1.125m-1.125 2.25h1.125m-1.125 2.25h1.125m-1.125 2.25h1.125m-1.125 4.5h1.125m-1.125 4.5h1.125m-1.125 4.5h1.125m-1.125 2.25h1.125m-1.125 2.25h1.125m-1.125 2.25h1.125m-1.125 9h1.125m-1.125 2.25h1.125m-1.125 2.25h1.125m-1.125 11.25h1.125m-1.125 2.25h1.125m-1.125 9h1.125m-1.125 15.75h1.125m-1.125 2.25h1.125m-1.125 2.25h1.125m-1.125 4.5h1.125m-1.125 2.25h1.125m-1.125 2.25h1.125m-1.125 2.25h1.125m-1.125 2.25h1.125m0 0h1.125m-1.125-2.25h1.125m-1.125-2.25h1.125m-1.125-2.25h1.125m-1.125-2.25h1.125m-1.125-2.25h1.125m-1.125-2.25h1.125m-1.125-6.75h1.125m-1.125-24.75h1.125m-1.125-4.5h1.125m-1.125-6.75h1.125m-1.125-2.25h1.125m-1.125-2.25h1.125m-1.125-13.5h1.125m-1.125-2.25h1.125m-1.125-11.25h1.125m-1.125-4.5h1.125m-1.125-2.25h1.125m-1.125-2.25h1.125m-1.125-2.25h1.125m0 0H405m-1.125 2.25H405m-1.125 2.25H405m-1.125 2.25H405m-1.125 2.25H405m-1.125 13.5H405m-1.125 2.25H405m-1.125 2.25H405m-1.125 2.25H405m-1.125 15.75H405m-1.125 4.5H405m-1.125 4.5H405m-1.125 2.25H405m-1.125 13.5H405m-1.125 4.5H405m-1.125 4.5H405m-1.125 2.25H405m-1.125 4.5H405m-1.125 2.25H405m-1.125 2.25H405m-1.125 2.25H405m-1.125 2.25H405m-1.125 2.25H405m-1.125 2.25H405m0 0h1.125m-1.125-2.25h1.125m-1.125-2.25h1.125m-1.125-2.25h1.125m-1.125-2.25h1.125m-1.125-2.25h1.125m-1.125-6.75h1.125m-1.125-2.25h1.125m-1.125-2.25h1.125m-1.125-6.75h1.125m-1.125-2.25h1.125m-1.125-4.5h1.125m-1.125-2.25h1.125m-1.125-2.25h1.125m-1.125-2.25h1.125m-1.125-2.25h1.125m-1.125-6.75h1.125m-1.125-4.5h1.125m-1.125-2.25h1.125m-1.125-2.25h1.125M405 192.938h1.125m-1.125-2.25h1.125m-1.125-2.25h1.125m-1.125-2.25h1.125m-1.125-2.25h1.125m-1.125-9h1.125m-1.125-2.25h1.125m-1.125-2.25h1.125m-1.125-2.25h1.125m-1.125-2.25h1.125m0 0h1.125m-1.125 2.25h1.125m-1.125 2.25h1.125m-1.125 2.25h1.125m-1.125 2.25h1.125m-1.125 6.75h1.125m-1.125 2.25h1.125m-1.125 2.25h1.125m-1.125 4.5h1.125m-1.125 2.25h1.125m-1.125 2.25h1.125m-1.125 2.25h1.125m-1.125 9h1.125m-1.125 2.25h1.125m-1.125 2.25h1.125m-1.125 2.25h1.125m-1.125 4.5h1.125m-1.125 2.25h1.125m-1.125 4.5h1.125m-1.125 4.5h1.125m-1.125 9h1.125m-1.125 2.25h1.125m-1.125 4.5h1.125m-1.125 2.25h1.125m-1.125 2.25h1.125m-1.125 2.25h1.125m-1.125 2.25h1.125m-1.125 2.25h1.125m-1.125 2.25h1.125m-1.125 2.25h1.125m-1.125 2.25h1.125m-1.125 2.25h1.125m0 0h1.125m-1.125-2.25h1.125m-1.125-2.25h1.125m-1.125-2.25h1.125m-1.125-2.25h1.125m-1.125-2.25h1.125m-1.125-6.75h1.125m-1.125-2.25h1.125m-1.125-2.25h1.125m-1.125-4.5h1.125m-1.125-2.25h1.125m-1.125-2.25h1.125m-1.125-4.5h1.125m-1.125-2.25h1.125m-1.125-2.25h1.125m-1.125-2.25h1.125m-1.125-2.25h1.125m-1.125-2.25h1.125m-1.125-6.75h1.125m-1.125-2.25h1.125m-1.125-2.25h1.125m-1.125-2.25h1.125m-1.125-2.25h1.125m-1.125-2.25h1.125m-1.125-4.5h1.125m-1.125-2.25h1.125m-1.125-2.25h1.125m-1.125-13.5h1.125m-1.125-4.5h1.125m-1.125-2.25h1.125m-1.125-2.25h1.125m-1.125-2.25h1.125m0 0h1.125m-1.125 2.25h1.125m-1.125 2.25h1.125m-1.125 2.25h1.125m-1.125 2.25h1.125m-1.125 2.25h1.125m-1.125 2.25h1.125m-1.125 4.5h1.125m-1.125 2.25h1.125m-1.125 2.25h1.125m-1.125 2.25h1.125m-1.125 2.25h1.125m-1.125 4.5h1.125m-1.125 4.5h1.125m-1.125 2.25h1.125m-1.125 2.25h1.125m-1.125 2.25h1.125m-1.125 2.25h1.125m-1.125 2.25h1.125m-1.125 4.5h1.125m-1.125 2.25h1.125m-1.125 2.25h1.125m-1.125 2.25h1.125m-1.125 6.75h1.125m-1.125 4.5h1.125m-1.125 4.5h1.125m-1.125 4.5h1.125m-1.125 2.25h1.125m-1.125 2.25h1.125m-1.125 4.5h1.125m-1.125 2.25h1.125m-1.125 2.25h1.125m-1.125 2.25h1.125m-1.125 2.25h1.125m-1.125 2.25h1.125m0 0h1.125m-1.125-2.25h1.125m-1.125-2.25h1.125m-1.125-2.25h1.125m-1.125-2.25h1.125m-1.125-2.25h1.125m-1.125-2.25h1.125m-1.125-4.5h1.125m-1.125-2.25h1.125m-1.125-6.75h1.125m-1.125-2.25h1.125m-1.125-4.5h1.125m-1.125-2.25h1.125m-1.125-2.25h1.125m-1.125-4.5h1.125m-1.125-2.25h1.125m-1.125-4.5h1.125m-1.125-2.25h1.125m-1.125-2.25h1.125m-1.125-2.25h1.125m-1.125-2.25h1.125m-1.125-2.25h1.125m-1.125-2.25h1.125m-1.125-2.25h1.125m-1.125-4.5h1.125m-1.125-4.5h1.125m-1.125-2.25h1.125m-1.125-2.25h1.125m-1.125-11.25h1.125m-1.125-2.25h1.125m-1.125-2.25h1.125m-1.125-2.25h1.125m-1.125-2.25h1.125m0 0h1.125m-1.125 2.25h1.125m-1.125 2.25h1.125m-1.125 2.25h1.125m-1.125 11.25h1.125m-1.125 2.25h1.125m-1.125 2.25h1.125m-1.125 4.5h1.125m-1.125 4.5h1.125m-1.125 4.5h1.125m-1.125 4.5h1.125m-1.125 9h1.125m-1.125 4.5h1.125m-1.125 2.25h1.125m-1.125 2.25h1.125m-1.125 2.25h1.125m-1.125 6.75h1.125m-1.125 2.25h1.125m-1.125 2.25h1.125m-1.125 2.25h1.125m-1.125 6.75h1.125m-1.125 2.25h1.125m-1.125 2.25h1.125m-1.125 2.25h1.125m-1.125 2.25h1.125m-1.125 2.25h1.125m-1.125 2.25h1.125m-1.125 2.25h1.125m-1.125 2.25h1.125m0 2.25h1.125m-1.125-2.25h1.125m-1.125-2.25h1.125m-1.125-2.25h1.125m-1.125-2.25h1.125m-1.125-2.25h1.125m-1.125-2.25h1.125m-1.125-2.25h1.125m-1.125-4.5h1.125m-1.125-2.25h1.125m-1.125-2.25h1.125m-1.125-2.25h1.125m-1.125-2.25h1.125m-1.125-4.5h1.125m-1.125-4.5h1.125m-1.125-2.25h1.125m-1.125-2.25h1.125m-1.125-2.25h1.125m-1.125-2.25h1.125m-1.125-2.25h1.125m-1.125-4.5h1.125m-1.125-2.25h1.125m-1.125-2.25h1.125m-1.125-2.25h1.125m-1.125-9h1.125m-1.125-2.25h1.125m-1.125-2.25h1.125m-1.125-2.25h1.125m-1.125-2.25h1.125m-1.125-2.25h1.125m-1.125-2.25h1.125m-1.125-2.25h1.125m-1.125-2.25h1.125m-1.125-2.25h1.125m-1.125-2.25h1.125m-1.125-2.25h1.125m-1.125-2.25h1.125m-1.125-2.25h1.125m-1.125-2.25h1.125m0 0H414m-1.125 2.25H414m-1.125 2.25H414m-1.125 2.25H414m-1.125 2.25H414m-1.125 13.5H414m-1.125 2.25H414m-1.125 2.25H414m-1.125 4.5H414m-1.125 4.5H414m-1.125 2.25H414m-1.125 2.25H414m-1.125 2.25H414m-1.125 2.25H414m-1.125 4.5H414m-1.125 2.25H414m-1.125 2.25H414m-1.125 2.25H414m-1.125 2.25H414m-1.125 2.25H414m-1.125 2.25H414m-1.125 9H414m-1.125 4.5H414m-1.125 2.25H414m-1.125 2.25H414m-1.125 2.25H414m-1.125 4.5H414m-1.125 2.25H414m-1.125 2.25H414m-1.125 2.25H414m-1.125 2.25H414m-1.125 2.25H414m0 0h1.125m-1.125-2.25h1.125m-1.125-2.25h1.125m-1.125-2.25h1.125m-1.125-2.25h1.125m-1.125-2.25h1.125m-1.125-2.25h1.125m-1.125-2.25h1.125m-1.125-4.5h1.125m-1.125-2.25h1.125m-1.125-2.25h1.125m-1.125-4.5h1.125M414 224.438h1.125m-1.125-2.25h1.125m-1.125-2.25h1.125m-1.125-2.25h1.125m-1.125-2.25h1.125m-1.125-4.5h1.125m-1.125-4.5h1.125m-1.125-2.25h1.125m-1.125-2.25h1.125m-1.125-2.25h1.125m-1.125-2.25h1.125m-1.125-2.25h1.125m-1.125-4.5h1.125m-1.125-4.5h1.125m-1.125-2.25h1.125m-1.125-4.5h1.125m-1.125-4.5h1.125m-1.125-2.25h1.125m-1.125-2.25h1.125m-1.125-2.25h1.125m-1.125-2.25h1.125m0 0h1.125m-1.125 2.25h1.125m-1.125 2.25h1.125m-1.125 2.25h1.125m-1.125 4.5h1.125m-1.125 2.25h1.125m-1.125 2.25h1.125m-1.125 4.5h1.125m-1.125 2.25h1.125m-1.125 2.25h1.125m-1.125 2.25h1.125m-1.125 2.25h1.125m-1.125 2.25h1.125m-1.125 6.75h1.125m-1.125 2.25h1.125m-1.125 2.25h1.125m-1.125 2.25h1.125m-1.125 2.25h1.125m-1.125 2.25h1.125m-1.125 4.5h1.125m-1.125 2.25h1.125m-1.125 6.75h1.125m-1.125 2.25h1.125m-1.125 2.25h1.125m-1.125 2.25h1.125m-1.125 4.5h1.125m-1.125 2.25h1.125m-1.125 2.25h1.125m-1.125 2.25h1.125m-1.125 2.25h1.125m-1.125 2.25h1.125m-1.125 2.25h1.125m-1.125 2.25h1.125m-1.125 2.25h1.125m-1.125 2.25h1.125m-1.125 2.25h1.125m-1.125 2.25h1.125m0 0h1.125m-1.125-2.25h1.125m-1.125-2.25h1.125m-1.125-2.25h1.125m-1.125-2.25h1.125m-1.125-2.25h1.125m-1.125-2.25h1.125m-1.125-4.5h1.125m-1.125-4.5h1.125m-1.125-2.25h1.125m-1.125-4.5h1.125m-1.125-2.25h1.125m-1.125-2.25h1.125m-1.125-4.5h1.125m-1.125-2.25h1.125m-1.125-2.25h1.125m-1.125-2.25h1.125m-1.125-2.25h1.125m-1.125-6.75h1.125m-1.125-2.25h1.125m-1.125-2.25h1.125m-1.125-2.25h1.125m-1.125-4.5h1.125m-1.125-4.5h1.125m-1.125-2.25h1.125m-1.125-2.25h1.125m-1.125-2.25h1.125m-1.125-4.5h1.125m-1.125-2.25h1.125m-1.125-6.75h1.125m-1.125-2.25h1.125m-1.125-2.25h1.125m-1.125-2.25h1.125m-1.125-2.25h1.125m0 0h1.125m-1.125 2.25h1.125m-1.125 2.25h1.125m-1.125 2.25h1.125m-1.125 4.5h1.125m-1.125 2.25h1.125m-1.125 2.25h1.125m-1.125 2.25h1.125m-1.125 2.25h1.125m-1.125 4.5h1.125m-1.125 2.25h1.125m-1.125 6.75h1.125m-1.125 2.25h1.125m-1.125 4.5h1.125m-1.125 2.25h1.125m-1.125 2.25h1.125m-1.125 2.25h1.125m-1.125 2.25h1.125m-1.125 2.25h1.125m-1.125 2.25h1.125m-1.125 2.25h1.125m-1.125 6.75h1.125m-1.125 2.25h1.125m-1.125 2.25h1.125m-1.125 2.25h1.125m-1.125 4.5h1.125m-1.125 2.25h1.125m-1.125 2.25h1.125m-1.125 4.5h1.125m-1.125 4.5h1.125m-1.125 2.25h1.125m-1.125 2.25h1.125m-1.125 2.25h1.125m-1.125 2.25h1.125m-1.125 2.25h1.125m0 0h1.125m-1.125-2.25h1.125m-1.125-2.25h1.125m-1.125-2.25h1.125m-1.125-2.25h1.125m-1.125-2.25h1.125m-1.125-2.25h1.125m-1.125-2.25h1.125m-1.125-4.5h1.125m-1.125-2.25h1.125m-1.125-6.75h1.125m-1.125-2.25h1.125m-1.125-2.25h1.125m-1.125-4.5h1.125m-1.125-2.25h1.125m-1.125-4.5h1.125m-1.125-2.25h1.125m-1.125-2.25h1.125m-1.125-2.25h1.125m-1.125-4.5h1.125m-1.125-2.25h1.125m-1.125-4.5h1.125m-1.125-2.25h1.125m-1.125-2.25h1.125m-1.125-2.25h1.125m-1.125-2.25h1.125m-1.125-2.25h1.125m-1.125-2.25h1.125m-1.125-13.5h1.125m-1.125-2.25h1.125m-1.125-2.25h1.125m-1.125-2.25h1.125m-1.125-2.25h1.125m0 0h1.125m-1.125 2.25h1.125m-1.125 2.25h1.125m-1.125 2.25h1.125m-1.125 2.25h1.125m-1.125 6.75h1.125m-1.125 4.5h1.125m-1.125 2.25h1.125m-1.125 2.25h1.125m-1.125 4.5h1.125m-1.125 2.25h1.125m-1.125 2.25h1.125m-1.125 4.5h1.125m-1.125 2.25h1.125m-1.125 2.25h1.125m-1.125 2.25h1.125m-1.125 4.5h1.125m-1.125 2.25h1.125m-1.125 2.25h1.125m-1.125 2.25h1.125m-1.125 2.25h1.125m-1.125 2.25h1.125m-1.125 2.25h1.125m-1.125 2.25h1.125m-1.125 4.5h1.125m-1.125 2.25h1.125m-1.125 4.5h1.125m-1.125 2.25h1.125m-1.125 2.25h1.125m-1.125 2.25h1.125m-1.125 4.5h1.125m-1.125 2.25h1.125m-1.125 2.25h1.125m-1.125 2.25h1.125m-1.125 2.25h1.125m-1.125 2.25h1.125m0 0h1.125m-1.125-2.25h1.125m-1.125-2.25h1.125m-1.125-2.25h1.125m-1.125-2.25h1.125m-1.125-2.25h1.125m-1.125-2.25h1.125m-1.125-2.25h1.125m-1.125-2.25h1.125m-1.125-2.25h1.125m-1.125-2.25h1.125m-1.125-2.25h1.125m-1.125-4.5h1.125m-1.125-2.25h1.125m-1.125-6.75h1.125m-1.125-4.5h1.125m-1.125-2.25h1.125m-1.125-4.5h1.125m-1.125-2.25h1.125m-1.125-9h1.125m-1.125-4.5h1.125m-1.125-4.5h1.125m-1.125-2.25h1.125m-1.125-2.25h1.125m-1.125-2.25h1.125m-1.125-4.5h1.125m-1.125-6.75h1.125m-1.125-2.25h1.125m-1.125-2.25h1.125m-1.125-2.25h1.125m-1.125-2.25h1.125m-1.125-2.25h1.125m0 0H423m-1.125 2.25H423m-1.125 2.25H423m-1.125 2.25H423m-1.125 9H423m-1.125 4.5H423m-1.125 2.25H423m-1.125 2.25H423m-1.125 2.25H423m-1.125 2.25H423m-1.125 2.25H423m-1.125 2.25H423m-1.125 2.25H423m-1.125 2.25H423m-1.125 2.25H423m-1.125 2.25H423m-1.125 2.25H423m-1.125 2.25H423m-1.125 2.25H423m-1.125 2.25H423m-1.125 2.25H423m-1.125 2.25H423m-1.125 6.75H423m-1.125 4.5H423m-1.125 2.25H423m-1.125 6.75H423m-1.125 2.25H423m-1.125 2.25H423m-1.125 2.25H423m-1.125 4.5H423m-1.125 2.25H423m-1.125 2.25H423m-1.125 2.25H423m-1.125 2.25H423m-1.125 2.25H423m0 0h1.125m-1.125-2.25h1.125m-1.125-2.25h1.125m-1.125-2.25h1.125m-1.125-2.25h1.125m-1.125-2.25h1.125m-1.125-2.25h1.125m-1.125-2.25h1.125m-1.125-2.25h1.125m-1.125-2.25h1.125m-1.125-2.25h1.125m-1.125-2.25h1.125m-1.125-2.25h1.125m-1.125-2.25h1.125m-1.125-4.5h1.125m-1.125-2.25h1.125m-1.125-2.25h1.125m-1.125-4.5h1.125m-1.125-4.5h1.125m-1.125-2.25h1.125m-1.125-2.25h1.125m-1.125-4.5h1.125m-1.125-2.25h1.125m-1.125-2.25h1.125m-1.125-4.5h1.125m-1.125-2.25h1.125m-1.125-2.25h1.125m-1.125-2.25h1.125m-1.125-2.25h1.125m-1.125-2.25h1.125m-1.125-2.25h1.125m-1.125-2.25h1.125m-1.125-2.25h1.125m-1.125-2.25h1.125m-1.125-4.5h1.125m-1.125-2.25h1.125m-1.125-2.25h1.125m-1.125-2.25h1.125m-1.125-2.25h1.125m0 0h1.125m-1.125 2.25h1.125m-1.125 2.25h1.125m-1.125 2.25h1.125m-1.125 4.5h1.125m-1.125 2.25h1.125m-1.125 2.25h1.125m-1.125 2.25h1.125m-1.125 2.25h1.125m-1.125 2.25h1.125m-1.125 2.25h1.125m-1.125 2.25h1.125m-1.125 9h1.125m-1.125 2.25h1.125m-1.125 13.5h1.125m-1.125 4.5h1.125m-1.125 2.25h1.125m-1.125 6.75h1.125m-1.125 2.25h1.125m-1.125 2.25h1.125m-1.125 2.25h1.125m-1.125 2.25h1.125m-1.125 2.25h1.125m-1.125 2.25h1.125m-1.125 2.25h1.125m-1.125 2.25h1.125m-1.125 2.25h1.125m-1.125 2.25h1.125m-1.125 2.25h1.125m-1.125 2.25h1.125m-1.125 2.25h1.125m-1.125 2.25h1.125m-1.125 2.25h1.125m0 0h1.125m-1.125-2.25h1.125m-1.125-2.25h1.125m-1.125-2.25h1.125m-1.125-2.25h1.125m-1.125-2.25h1.125m-1.125-2.25h1.125m-1.125-2.25h1.125m-1.125-2.25h1.125m-1.125-4.5h1.125m-1.125-6.75h1.125m-1.125-2.25h1.125m-1.125-2.25h1.125m-1.125-6.75h1.125m-1.125-2.25h1.125m-1.125-2.25h1.125m-1.125-2.25h1.125m-1.125-2.25h1.125m-1.125-4.5h1.125m-1.125-2.25h1.125m-1.125-2.25h1.125m-1.125-2.25h1.125m-1.125-2.25h1.125m-1.125-4.5h1.125m-1.125-2.25h1.125m-1.125-2.25h1.125m-1.125-2.25h1.125m-1.125-2.25h1.125m-1.125-2.25h1.125m-1.125-9h1.125m-1.125-2.25h1.125m-1.125-2.25h1.125m-1.125-2.25h1.125m-1.125-2.25h1.125m-1.125-2.25h1.125m0 0h1.125m-1.125 2.25h1.125m-1.125 2.25h1.125m-1.125 2.25h1.125m-1.125 2.25h1.125m-1.125 6.75h1.125m-1.125 2.25h1.125m-1.125 4.5h1.125m-1.125 2.25h1.125m-1.125 2.25h1.125m-1.125 2.25h1.125m-1.125 6.75h1.125m-1.125 2.25h1.125m-1.125 2.25h1.125m-1.125 2.25h1.125m-1.125 2.25h1.125m-1.125 4.5h1.125m-1.125 2.25h1.125m-1.125 2.25h1.125m-1.125 2.25h1.125m-1.125 2.25h1.125m-1.125 2.25h1.125m-1.125 2.25h1.125m-1.125 2.25h1.125m-1.125 2.25h1.125m-1.125 2.25h1.125m-1.125 6.75h1.125m-1.125 4.5h1.125m-1.125 2.25h1.125m-1.125 2.25h1.125m-1.125 2.25h1.125m-1.125 2.25h1.125m-1.125 2.25h1.125m-1.125 2.25h1.125m-1.125 2.25h1.125m-1.125 2.25h1.125m0 0h1.125m-1.125-2.25h1.125m-1.125-2.25h1.125m-1.125-2.25h1.125m-1.125-2.25h1.125m-1.125-4.5h1.125m-1.125-2.25h1.125m-1.125-2.25h1.125m-1.125-2.25h1.125m-1.125-6.75h1.125m-1.125-2.25h1.125m-1.125-2.25h1.125m-1.125-2.25h1.125m-1.125-2.25h1.125m-1.125-4.5h1.125m-1.125-2.25h1.125m-1.125-2.25h1.125m-1.125-2.25h1.125m-1.125-2.25h1.125m-1.125-4.5h1.125m-1.125-2.25h1.125m-1.125-2.25h1.125m-1.125-6.75h1.125m-1.125-4.5h1.125m-1.125-2.25h1.125m-1.125-2.25h1.125m-1.125-2.25h1.125m-1.125-6.75h1.125m-1.125-6.75h1.125m-1.125-2.25h1.125m-1.125-2.25h1.125m-1.125-2.25h1.125m-1.125-2.25h1.125m0 0h1.125m-1.125 2.25h1.125m-1.125 2.25h1.125m-1.125 2.25h1.125m-1.125 11.25h1.125m-1.125 2.25h1.125m-1.125 2.25h1.125m-1.125 2.25h1.125m-1.125 2.25h1.125m-1.125 2.25h1.125m-1.125 2.25h1.125m-1.125 2.25h1.125m-1.125 4.5h1.125m-1.125 4.5h1.125m-1.125 2.25h1.125m-1.125 4.5h1.125m-1.125 2.25h1.125m-1.125 2.25h1.125m-1.125 2.25h1.125m-1.125 11.25h1.125m-1.125 4.5h1.125m-1.125 2.25h1.125m-1.125 2.25h1.125m-1.125 4.5h1.125m-1.125 4.5h1.125m-1.125 2.25h1.125m-1.125 2.25h1.125m-1.125 2.25h1.125m-1.125 2.25h1.125m-1.125 2.25h1.125m-1.125 2.25h1.125m0 0h1.125m-1.125-2.25h1.125m-1.125-2.25h1.125m-1.125-2.25h1.125m-1.125-2.25h1.125m-1.125-2.25h1.125m-1.125-2.25h1.125m-1.125-4.5h1.125m-1.125-6.75h1.125m-1.125-2.25h1.125m-1.125-2.25h1.125m-1.125-2.25h1.125m-1.125-2.25h1.125m-1.125-2.25h1.125m-1.125-6.75h1.125m-1.125-2.25h1.125m-1.125-4.5h1.125m-1.125-2.25h1.125m-1.125-6.75h1.125m-1.125-6.75h1.125m-1.125-6.75h1.125m-1.125-2.25h1.125m-1.125-2.25h1.125m-1.125-9h1.125m-1.125-4.5h1.125m-1.125-2.25h1.125m-1.125-2.25h1.125m-1.125-2.25h1.125m-1.125-2.25h1.125m0 0H432m-1.125 2.25H432m-1.125 2.25H432m-1.125 2.25H432m-1.125 6.75H432m-1.125 6.75H432m-1.125 2.25H432m-1.125 2.25H432m-1.125 2.25H432m-1.125 2.25H432m-1.125 4.5H432m-1.125 2.25H432m-1.125 2.25H432m-1.125 4.5H432m-1.125 6.75H432m-1.125 4.5H432m-1.125 2.25H432m-1.125 4.5H432m-1.125 6.75H432m-1.125 2.25H432m-1.125 2.25H432m-1.125 2.25H432m-1.125 4.5H432m-1.125 2.25H432m-1.125 4.5H432m-1.125 2.25H432m-1.125 2.25H432m-1.125 2.25H432m-1.125 2.25H432m-1.125 2.25H432m-1.125 2.25H432m0 0h1.125m-1.125-2.25h1.125m-1.125-2.25h1.125m-1.125-2.25h1.125m-1.125-2.25h1.125m-1.125-2.25h1.125m-1.125-2.25h1.125m-1.125-2.25h1.125m-1.125-2.25h1.125m-1.125-2.25h1.125m-1.125-2.25h1.125m-1.125-2.25h1.125m-1.125-2.25h1.125m-1.125-2.25h1.125m-1.125-2.25h1.125M432 213.188h1.125m-1.125-2.25h1.125m-1.125-2.25h1.125m-1.125-6.75h1.125m-1.125-2.25h1.125m-1.125-2.25h1.125m-1.125-6.75h1.125m-1.125-2.25h1.125m-1.125-4.5h1.125m-1.125-4.5h1.125m-1.125-2.25h1.125m-1.125-4.5h1.125m-1.125-2.25h1.125m-1.125-2.25h1.125m-1.125-2.25h1.125m0 0h1.125m-1.125 2.25h1.125m-1.125 2.25h1.125m-1.125 2.25h1.125m-1.125 18h1.125m-1.125 2.25h1.125m-1.125 13.5h1.125m-1.125 9h1.125m-1.125 2.25h1.125m-1.125 2.25h1.125m-1.125 4.5h1.125m-1.125 9h1.125m-1.125 2.25h1.125m-1.125 4.5h1.125m-1.125 2.25h1.125m-1.125 2.25h1.125m-1.125 4.5h1.125m-1.125 2.25h1.125m-1.125 4.5h1.125m-1.125 2.25h1.125m-1.125 2.25h1.125m-1.125 2.25h1.125m-1.125 2.25h1.125m0 0h1.125m-1.125-2.25h1.125m-1.125-2.25h1.125m-1.125-2.25h1.125m-1.125-2.25h1.125m-1.125-6.75h1.125m-1.125-2.25h1.125m-1.125-2.25h1.125m-1.125-2.25h1.125m-1.125-2.25h1.125m-1.125-4.5h1.125m-1.125-2.25h1.125m-1.125-2.25h1.125m-1.125-2.25h1.125m-1.125-2.25h1.125m-1.125-2.25h1.125m-1.125-15.75h1.125m-1.125-6.75h1.125m-1.125-9h1.125m-1.125-9h1.125m-1.125-11.25h1.125m-1.125-2.25h1.125m-1.125-2.25h1.125m-1.125-2.25h1.125m0 0h1.125m-1.125 2.25h1.125m-1.125 2.25h1.125m-1.125 2.25h1.125m-1.125 2.25h1.125m-1.125 13.5h1.125m-1.125 2.25h1.125m-1.125 2.25h1.125m-1.125 2.25h1.125m-1.125 6.75h1.125m-1.125 9h1.125m-1.125 2.25h1.125m-1.125 6.75h1.125m-1.125 2.25h1.125m-1.125 15.75h1.125m-1.125 2.25h1.125m-1.125 2.25h1.125m-1.125 2.25h1.125m-1.125 4.5h1.125m-1.125 4.5h1.125m-1.125 2.25h1.125m-1.125 2.25h1.125m-1.125 2.25h1.125m-1.125 2.25h1.125m-1.125 2.25h1.125m0 0h1.125m-1.125-2.25h1.125m-1.125-2.25h1.125m-1.125-2.25h1.125m-1.125-2.25h1.125m-1.125-6.75h1.125m-1.125-13.5h1.125m-1.125-2.25h1.125m-1.125-9h1.125m-1.125-4.5h1.125m-1.125-2.25h1.125m-1.125-2.25h1.125m-1.125-6.75h1.125m-1.125-4.5h1.125m-1.125-2.25h1.125m-1.125-9h1.125m-1.125-2.25h1.125m-1.125-2.25h1.125m-1.125-15.75h1.125m-1.125-2.25h1.125m-1.125-2.25h1.125m-1.125-2.25h1.125m0 0h1.125m-1.125 2.25h1.125m-1.125 2.25h1.125m-1.125 2.25h1.125m-1.125 9h1.125m-1.125 2.25h1.125m-1.125 4.5h1.125m-1.125 11.25h1.125m-1.125 4.5h1.125m-1.125 9h1.125m-1.125 11.25h1.125m-1.125 11.25h1.125m-1.125 2.25h1.125m-1.125 9h1.125m-1.125 4.5h1.125m-1.125 4.5h1.125m-1.125 2.25h1.125m-1.125 2.25h1.125m-1.125 2.25h1.125m-1.125 2.25h1.125m0 2.25h1.125m-1.125-2.25h1.125m-1.125-2.25h1.125m-1.125-2.25h1.125m-1.125-2.25h1.125m-1.125-2.25h1.125m-1.125-2.25h1.125m-1.125-2.25h1.125m-1.125-4.5h1.125m-1.125-4.5h1.125m-1.125-9h1.125m-1.125-20.25h1.125m-1.125-2.25h1.125m-1.125-2.25h1.125m-1.125-4.5h1.125m-1.125-11.25h1.125m-1.125-2.25h1.125m-1.125-2.25h1.125m-1.125-15.75h1.125m-1.125-2.25h1.125m-1.125-2.25h1.125m-1.125-2.25h1.125m0 0H441m-1.125 2.25H441m-1.125 2.25H441m-1.125 2.25H441m-1.125 13.5H441m-1.125 2.25H441m-1.125 9H441m-1.125 11.25H441m-1.125 11.25H441m-1.125 4.5H441m-1.125 4.5H441m-1.125 18H441m-1.125 2.25H441m-1.125 4.5H441m-1.125 2.25H441m-1.125 2.25H441m-1.125 2.25H441m-1.125 2.25H441m-1.125 2.25H441m-1.125 2.25H441m0-2.25h1.125m-1.125-2.25h1.125m-1.125-2.25h1.125m-1.125-2.25h1.125m-1.125-2.25h1.125m-1.125-2.25h1.125m-1.125-4.5h1.125m-1.125-6.75h1.125m-1.125-4.5h1.125m-1.125-2.25h1.125m-1.125-2.25h1.125M441 222.188h1.125m-1.125-31.5h1.125m-1.125-2.25h1.125M441 172.688h1.125m-1.125-2.25h1.125m-1.125-2.25h1.125m-1.125-2.25h1.125m0 2.25h1.125m-1.125 2.25h1.125m-1.125 2.25h1.125m-1.125 18h1.125m-1.125 27h1.125m-1.125 4.5h1.125m-1.125 24.75h1.125m-1.125 4.5h1.125m-1.125 6.75h1.125m-1.125 2.25h1.125m-1.125 2.25h1.125m-1.125 2.25h1.125m0 2.25h1.125m-1.125-2.25h1.125m-1.125-2.25h1.125m-1.125-2.25h1.125m-1.125-2.25h1.125m-1.125-2.25h1.125m-1.125-4.5h1.125m-1.125-13.5h1.125m-1.125-4.5h1.125m-1.125-15.75h1.125m-1.125-2.25h1.125m-1.125-13.5h1.125m-1.125-9h1.125m-1.125-2.25h1.125m-1.125-20.25h1.125m-1.125-2.25h1.125m-1.125-2.25h1.125m0 0h1.125m-1.125 2.25h1.125m-1.125 2.25h1.125m-1.125 22.5h1.125m-1.125 15.75h1.125m-1.125 4.5h1.125m-1.125 24.75h1.125m-1.125 4.5h1.125m-1.125 2.25h1.125m-1.125 2.25h1.125m-1.125 6.75h1.125m-1.125 2.25h1.125m-1.125 2.25h1.125m-1.125 2.25h1.125m-1.125 2.25h1.125m-1.125 2.25h1.125m0 0h1.125m-1.125-2.25h1.125m-1.125-2.25h1.125m-1.125-2.25h1.125m-1.125-2.25h1.125m-1.125-49.5h1.125m-1.125-22.5h1.125m-1.125-11.25h1.125m-1.125-2.25h1.125m-1.125-2.25h1.125m0-2.25h1.125m-1.125 2.25h1.125m-1.125 2.25h1.125m-1.125 22.5h1.125m-1.125 47.25h1.125m-1.125 15.75h1.125m-1.125 2.25h1.125m-1.125 2.25h1.125m-1.125 2.25h1.125m-1.125 2.25h1.125m-1.125 2.25h1.125m0-2.25h1.125m-1.125-2.25h1.125m-1.125-2.25h1.125m-1.125-2.25h1.125m-1.125-2.25h1.125m-1.125-83.25h1.125m-1.125-2.25h1.125m-1.125-2.25h1.125m0 0H450m-1.125 2.25H450m-1.125 85.5H450m-1.125 2.25H450m-1.125 2.25H450m-1.125 2.25H450m-1.125 2.25H450m0 0h1.125m-1.125-2.25h1.125m-1.125-2.25h1.125m-1.125-2.25h1.125m-1.125-2.25h1.125M450 172.688h1.125m-1.125-2.25h1.125m-1.125-2.25h1.125m0-2.25h1.125m-1.125 2.25h1.125m-1.125 2.25h1.125m-1.125 85.5h1.125m-1.125 2.25h1.125m-1.125 2.25h1.125m-1.125 2.25h1.125m-1.125 2.25h1.125m0 0h1.125m-1.125-2.25h1.125m-1.125-2.25h1.125m-1.125-2.25h1.125m-1.125-2.25h1.125m-1.125-63h1.125m-1.125-22.5h1.125m-1.125-2.25h1.125m-1.125-2.25h1.125m0 2.25h1.125m-1.125 2.25h1.125m-1.125 76.5h1.125m-1.125 9h1.125m-1.125 2.25h1.125m-1.125 2.25h1.125m-1.125 2.25h1.125m-1.125 2.25h1.125m0 0h1.125m-1.125-2.25h1.125m-1.125-2.25h1.125m-1.125-2.25h1.125m-1.125-2.25h1.125m-1.125-85.5h1.125m-1.125-2.25h1.125m0 0h1.125m-1.125 2.25h1.125m-1.125 85.5h1.125m-1.125 2.25h1.125m-1.125 2.25h1.125m-1.125 2.25h1.125m-1.125 2.25h1.125m0 0h1.125m-1.125-2.25h1.125m-1.125-2.25h1.125m-1.125-2.25h1.125m-1.125-2.25h1.125m-1.125-85.5h1.125m-1.125-2.25h1.125m0-2.25H459m-1.125 2.25H459m-1.125 2.25H459m-1.125 85.5H459m-1.125 2.25H459m-1.125 2.25H459m-1.125 2.25H459m-1.125 2.25H459m0 0h1.125m-1.125-2.25h1.125m-1.125-2.25h1.125m-1.125-2.25h1.125m-1.125-2.25h1.125m-1.125-85.5h1.125m-1.125-2.25h1.125m-1.125-2.25h1.125m0 2.25h1.125m-1.125 2.25h1.125m-1.125 87.75h1.125m-1.125 2.25h1.125m-1.125 2.25h1.125m-1.125 2.25h1.125m0 0h1.125m-1.125-2.25h1.125m-1.125-2.25h1.125m-1.125-2.25h1.125m-1.125-2.25h1.125m-1.125-11.25h1.125m-1.125-74.25h1.125m-1.125-2.25h1.125m0-2.25h1.125m-1.125 2.25h1.125m-1.125 2.25h1.125m-1.125 2.25h1.125m-1.125 83.25h1.125m-1.125 2.25h1.125m-1.125 2.25h1.125m-1.125 2.25h1.125m-1.125 2.25h1.125m0 0h1.125m-1.125-2.25h1.125m-1.125-2.25h1.125m-1.125-2.25h1.125m-1.125-2.25h1.125m-1.125-87.75h1.125m-1.125-2.25h1.125m0 2.25h1.125m-1.125 2.25h1.125m-1.125 87.75h1.125m-1.125 2.25h1.125m-1.125 2.25h1.125m-1.125 2.25h1.125m0 0h1.125m-1.125-2.25h1.125m-1.125-2.25h1.125m-1.125-2.25h1.125m-1.125-2.25h1.125m-1.125-85.5h1.125m-1.125-2.25h1.125m0 0H468m-1.125 2.25H468m-1.125 87.75H468m-1.125 2.25H468m-1.125 2.25H468m-1.125 2.25H468m0 0h1.125m-1.125-2.25h1.125m-1.125-2.25h1.125m-1.125-2.25h1.125m-1.125-2.25h1.125m-1.125-85.5h1.125m-1.125-2.25h1.125m0 0h1.125m-1.125 2.25h1.125m-1.125 85.5h1.125m-1.125 2.25h1.125m-1.125 2.25h1.125m-1.125 2.25h1.125m-1.125 2.25h1.125m0 0h1.125m-1.125-2.25h1.125m-1.125-2.25h1.125m-1.125-2.25h1.125m-1.125-2.25h1.125m-1.125-85.5h1.125m-1.125-2.25h1.125m0 0h1.125m-1.125 2.25h1.125m-1.125 85.5h1.125m-1.125 2.25h1.125m-1.125 2.25h1.125m-1.125 2.25h1.125m-1.125 2.25h1.125m0 0h1.125m-1.125-2.25h1.125m-1.125-2.25h1.125m-1.125-2.25h1.125m-1.125-87.75h1.125m-1.125-2.25h1.125m0-2.25h1.125m-1.125 2.25h1.125m-1.125 2.25h1.125m-1.125 85.5h1.125m-1.125 2.25h1.125m-1.125 2.25h1.125m-1.125 2.25h1.125m-1.125 2.25h1.125m0 0h1.125m-1.125-2.25h1.125m-1.125-2.25h1.125m-1.125-2.25h1.125m-1.125-2.25h1.125m-1.125-87.75h1.125m0 0H477m-1.125 4.5H477m-1.125 85.5H477m-1.125 2.25H477m-1.125 2.25H477m-1.125 2.25H477m0 0h1.125m-1.125-2.25h1.125m-1.125-2.25h1.125m-1.125-2.25h1.125m-1.125-90h1.125m0 0h1.125m-1.125 2.25h1.125m-1.125 85.5h1.125m-1.125 2.25h1.125m-1.125 2.25h1.125m-1.125 2.25h1.125m-1.125 2.25h1.125m0 0h1.125m-1.125-2.25h1.125m-1.125-2.25h1.125m-1.125-2.25h1.125m-1.125-2.25h1.125m-1.125-87.75h1.125m-1.125-2.25h1.125m0 2.25h1.125m-1.125 2.25h1.125m-1.125 65.25h1.125m-1.125 20.25h1.125m-1.125 2.25h1.125m-1.125 2.25h1.125m-1.125 2.25h1.125m-1.125 2.25h1.125m0 0h1.125m-1.125-2.25h1.125m-1.125-2.25h1.125m-1.125-2.25h1.125m-1.125-2.25h1.125m-1.125-87.75h1.125m0 0h1.125m-1.125 2.25h1.125m-1.125 85.5h1.125m-1.125 2.25h1.125m-1.125 2.25h1.125m-1.125 2.25h1.125m-1.125 2.25h1.125m0 0h1.125m-1.125-2.25h1.125m-1.125-2.25h1.125m-1.125-2.25h1.125m-1.125-2.25h1.125m-1.125-87.75h1.125m0 0H486m-1.125 2.25H486m-1.125 2.25H486m-1.125 83.25H486m-1.125 2.25H486m-1.125 2.25H486m-1.125 2.25H486m-1.125 2.25H486m0 0h1.125m-1.125-2.25h1.125m-1.125-2.25h1.125m-1.125-2.25h1.125m-1.125-2.25h1.125m-1.125-85.5h1.125m-1.125-2.25h1.125m0 0h1.125m-1.125 2.25h1.125m-1.125 85.5h1.125m-1.125 2.25h1.125m-1.125 2.25h1.125m-1.125 2.25h1.125m-1.125 2.25h1.125m0 0h1.125m-1.125-2.25h1.125m-1.125-2.25h1.125m-1.125-2.25h1.125m-1.125-2.25h1.125m-1.125-87.75h1.125m-1.125-2.25h1.125m0 2.25h1.125m-1.125 2.25h1.125m-1.125 85.5h1.125m-1.125 2.25h1.125m-1.125 2.25h1.125m-1.125 2.25h1.125m-1.125 2.25h1.125m0 0h1.125m-1.125-2.25h1.125m-1.125-2.25h1.125m-1.125-2.25h1.125m-1.125-2.25h1.125m-1.125-85.5h1.125m-1.125-2.25h1.125m-1.125-2.25h1.125m0 2.25h1.125m-1.125 2.25h1.125m-1.125 85.5h1.125m-1.125 2.25h1.125m-1.125 2.25h1.125m-1.125 2.25h1.125m-1.125 2.25h1.125m0 0h1.125m-1.125-2.25h1.125m-1.125-2.25h1.125m-1.125-2.25h1.125m-1.125-2.25h1.125m-1.125-87.75h1.125m0 0H495m-1.125 87.75H495m-1.125 2.25H495m-1.125 2.25H495m-1.125 2.25H495m-1.125 2.25H495m0 0h1.125m-1.125-2.25h1.125m-1.125-2.25h1.125m-1.125-2.25h1.125m-1.125-2.25h1.125M495 168.188h1.125m0 0h1.125m-1.125 2.25h1.125m-1.125 85.5h1.125m-1.125 2.25h1.125m-1.125 2.25h1.125m-1.125 2.25h1.125m-1.125 2.25h1.125m0 0h1.125m-1.125-2.25h1.125m-1.125-2.25h1.125m-1.125-2.25h1.125m-1.125-2.25h1.125m-1.125-87.75h1.125m0 0h1.125m-1.125 2.25h1.125m-1.125 85.5h1.125m-1.125 2.25h1.125m-1.125 2.25h1.125m-1.125 2.25h1.125m-1.125 2.25h1.125m0 0h1.125m-1.125-2.25h1.125m-1.125-2.25h1.125m-1.125-2.25h1.125m-1.125-2.25h1.125m-1.125-87.75h1.125m0 0h1.125m-1.125 2.25h1.125m-1.125 85.5h1.125m-1.125 2.25h1.125m-1.125 2.25h1.125m-1.125 2.25h1.125m-1.125 2.25h1.125m0 0h1.125m-1.125-2.25h1.125m-1.125-2.25h1.125m-1.125-2.25h1.125m-1.125-2.25h1.125m-1.125-85.5h1.125m0-2.25H504m-1.125 2.25H504m-1.125 85.5H504m-1.125 2.25H504m-1.125 2.25H504m-1.125 2.25H504m-1.125 2.25H504m0 0h1.125m-1.125-2.25h1.125m-1.125-2.25h1.125m-1.125-2.25h1.125m-1.125-2.25h1.125m-1.125-85.5h1.125m-1.125-2.25h1.125m0 0h1.125m-1.125 2.25h1.125m-1.125 85.5h1.125m-1.125 2.25h1.125m-1.125 2.25h1.125m-1.125 2.25h1.125m-1.125 2.25h1.125m0 0h1.125m-1.125-2.25h1.125m-1.125-2.25h1.125m-1.125-2.25h1.125m-1.125-2.25h1.125m-1.125-87.75h1.125m0 0h1.125m-1.125 2.25h1.125m-1.125 85.5h1.125m-1.125 2.25h1.125m-1.125 2.25h1.125m-1.125 2.25h1.125m-1.125 2.25h1.125m0 0h1.125m-1.125-2.25h1.125m-1.125-2.25h1.125m-1.125-2.25h1.125m-1.125-2.25h1.125m-1.125-83.25h1.125m-1.125-2.25h1.125m-1.125-2.25h1.125m0 0h1.125m-1.125 2.25h1.125m-1.125 85.5h1.125m-1.125 2.25h1.125m-1.125 2.25h1.125m-1.125 2.25h1.125m-1.125 2.25h1.125m0 0h1.125m-1.125-2.25h1.125m-1.125-2.25h1.125m-1.125-2.25h1.125m-1.125-2.25h1.125m-1.125-85.5h1.125m-1.125-2.25h1.125m-1.125-2.25h1.125m0 2.25H513m-1.125 2.25H513m-1.125 85.5H513m-1.125 2.25H513m-1.125 2.25H513m-1.125 2.25H513m-1.125 2.25H513m0 0h1.125m-1.125-2.25h1.125m-1.125-2.25h1.125m-1.125-2.25h1.125m-1.125-2.25h1.125m-1.125-85.5h1.125m0-2.25h1.125m-1.125 2.25h1.125m-1.125 85.5h1.125m-1.125 2.25h1.125m-1.125 2.25h1.125m-1.125 2.25h1.125m-1.125 2.25h1.125m0 0h1.125m-1.125-2.25h1.125m-1.125-2.25h1.125m-1.125-2.25h1.125m-1.125-2.25h1.125m-1.125-4.5h1.125m-1.125-81h1.125m-1.125-2.25h1.125m0 0h1.125m-1.125 87.75h1.125m-1.125 2.25h1.125m-1.125 2.25h1.125m-1.125 2.25h1.125m-1.125 2.25h1.125m0 0h1.125m-1.125-2.25h1.125m-1.125-2.25h1.125m-1.125-2.25h1.125m-1.125-2.25h1.125m-1.125-85.5h1.125m-1.125-2.25h1.125m0 0h1.125m-1.125 87.75h1.125m-1.125 2.25h1.125m-1.125 2.25h1.125m-1.125 2.25h1.125m-1.125 2.25h1.125m0 0h1.125m-1.125-2.25h1.125m-1.125-2.25h1.125m-1.125-2.25h1.125m-1.125-2.25h1.125m-1.125-85.5h1.125m-1.125-2.25h1.125m0 0H522m-1.125 87.75H522m-1.125 2.25H522m-1.125 2.25H522m-1.125 2.25H522m-1.125 2.25H522m0 0h1.125m-1.125-2.25h1.125m-1.125-2.25h1.125m-1.125-2.25h1.125m-1.125-2.25h1.125M522 168.188h1.125m0 0h1.125m-1.125 2.25h1.125m-1.125 85.5h1.125m-1.125 2.25h1.125m-1.125 2.25h1.125m-1.125 2.25h1.125m-1.125 2.25h1.125m0 0h1.125m-1.125-2.25h1.125m-1.125-2.25h1.125m-1.125-2.25h1.125m-1.125-2.25h1.125m-1.125-65.25h1.125m-1.125-20.25h1.125m0-2.25h1.125m-1.125 87.75h1.125m-1.125 2.25h1.125m-1.125 2.25h1.125m-1.125 2.25h1.125m-1.125 2.25h1.125m0 0h1.125m-1.125-2.25h1.125m-1.125-2.25h1.125m-1.125-2.25h1.125m-1.125-90h1.125m0 0h1.125m-1.125 87.75h1.125m-1.125 2.25h1.125m-1.125 2.25h1.125m-1.125 2.25h1.125m-1.125 2.25h1.125m0 0h1.125m-1.125-2.25h1.125m-1.125-2.25h1.125m-1.125-2.25h1.125m-1.125-2.25h1.125m-1.125-90h1.125m0 2.25H531m-1.125 87.75H531m-1.125 2.25H531m-1.125 2.25H531m-1.125 2.25H531m-1.125 2.25H531m0 0h1.125m-1.125-2.25h1.125m-1.125-2.25h1.125m-1.125-2.25h1.125m-1.125-2.25h1.125m0 0h1.125m-1.125 2.25h1.125m-1.125 2.25h1.125m-1.125 2.25h1.125m-1.125 2.25h1.125m0 0h1.125m-1.125-2.25h1.125m-1.125-2.25h1.125m-1.125-2.25h1.125m-1.125-2.25h1.125m0 0h1.125m-1.125 2.25h1.125m-1.125 2.25h1.125m-1.125 2.25h1.125m-1.125 2.25h1.125m0 2.25h1.125m-1.125-2.25h1.125m-1.125-2.25h1.125m-1.125-2.25h1.125m-1.125-2.25h1.125m-1.125-2.25h1.125m0 0h1.125m-1.125 2.25h1.125m-1.125 2.25h1.125m-1.125 2.25h1.125m-1.125 2.25h1.125m0 0h1.125m-1.125-2.25h1.125m-1.125-2.25h1.125m-1.125-2.25h1.125m-1.125-2.25h1.125m0 0H540m-1.125 2.25H540m-1.125 2.25H540m-1.125 2.25H540m-1.125 2.25H540m0 0h1.125m-1.125-2.25h1.125m-1.125-2.25h1.125m-1.125-2.25h1.125m-1.125-2.25h1.125m0 0h1.125m-1.125 2.25h1.125m-1.125 2.25h1.125m-1.125 2.25h1.125m-1.125 2.25h1.125m0 0h1.125m-1.125-2.25h1.125m-1.125-2.25h1.125m-1.125-2.25h1.125m-1.125-2.25h1.125m0 0h1.125m-1.125 2.25h1.125m-1.125 2.25h1.125m-1.125 2.25h1.125m-1.125 2.25h1.125m0 0h1.125m-1.125-2.25h1.125m-1.125-2.25h1.125m-1.125-2.25h1.125m-1.125-2.25h1.125m0 2.25h1.125m-1.125 2.25h1.125m-1.125 2.25h1.125m-1.125 2.25h1.125m0 0h1.125m-1.125-2.25h1.125m-1.125-2.25h1.125m-1.125-2.25h1.125m0-2.25H549m-1.125 2.25H549m-1.125 2.25H549m-1.125 2.25H549m-1.125 2.25H549m0 0h1.125m-1.125-2.25h1.125m-1.125-2.25h1.125m-1.125-2.25h1.125m-1.125-2.25h1.125m0 0h1.125m-1.125 2.25h1.125m-1.125 2.25h1.125m-1.125 2.25h1.125m-1.125 2.25h1.125m0 0h1.125m-1.125-2.25h1.125m-1.125-2.25h1.125m-1.125-2.25h1.125m-1.125-2.25h1.125m0 0h1.125m-1.125 2.25h1.125m-1.125 2.25h1.125m-1.125 2.25h1.125m-1.125 2.25h1.125m0 0h1.125m-1.125-2.25h1.125m-1.125-2.25h1.125m-1.125-2.25h1.125m-1.125-2.25h1.125m0 0h1.125m-1.125 2.25h1.125m-1.125 2.25h1.125m-1.125 2.25h1.125m-1.125 2.25h1.125m0 0h1.125m-1.125-2.25h1.125m-1.125-2.25h1.125m-1.125-2.25h1.125m-1.125-2.25h1.125m0 0H558m-1.125 2.25H558m-1.125 2.25H558m-1.125 2.25H558m-1.125 2.25H558m0 0h1.125m-1.125-2.25h1.125m-1.125-2.25h1.125m-1.125-2.25h1.125m0-2.25h1.125m-1.125 2.25h1.125m-1.125 2.25h1.125m-1.125 2.25h1.125m-1.125 2.25h1.125m0 0h1.125m-1.125-2.25h1.125m-1.125-2.25h1.125m-1.125-2.25h1.125m0-2.25h1.125m-1.125 2.25h1.125m-1.125 2.25h1.125m-1.125 2.25h1.125m-1.125 2.25h1.125m0 0h1.125m-1.125-2.25h1.125m-1.125-2.25h1.125m-1.125-2.25h1.125m-1.125-2.25h1.125m0 2.25h1.125m-1.125 2.25h1.125m-1.125 2.25h1.125m-1.125 2.25h1.125m0 0h1.125m-1.125-2.25h1.125m-1.125-2.25h1.125m-1.125-2.25h1.125m-1.125-2.25h1.125m0 0H567m-1.125 2.25H567m-1.125 2.25H567m-1.125 2.25H567m-1.125 2.25H567m0 0h1.125m-1.125-2.25h1.125m-1.125-2.25h1.125m-1.125-2.25h1.125m-1.125-2.25h1.125m0 0h1.125m-1.125 2.25h1.125m-1.125 2.25h1.125m-1.125 2.25h1.125m-1.125 2.25h1.125m0 0h1.125m-1.125-2.25h1.125m-1.125-2.25h1.125m-1.125-2.25h1.125m-1.125-2.25h1.125m0 0h1.125m-1.125 2.25h1.125m-1.125 2.25h1.125m-1.125 2.25h1.125m-1.125 2.25h1.125m0 0h1.125m-1.125-2.25h1.125m-1.125-2.25h1.125m-1.125-2.25h1.125m-1.125-2.25h1.125m0 0h1.125m-1.125 2.25h1.125m-1.125 2.25h1.125m-1.125 2.25h1.125m-1.125 2.25h1.125m0 0h1.125m-1.125-2.25h1.125m-1.125-2.25h1.125m-1.125-2.25h1.125m-1.125-2.25h1.125m0 0H576m-1.125 2.25H576m-1.125 2.25H576m-1.125 2.25H576m-1.125 2.25H576m0 0h1.125m-1.125-2.25h1.125m-1.125-2.25h1.125m-1.125-2.25h1.125m0-2.25h1.125m-1.125 2.25h1.125m-1.125 2.25h1.125m-1.125 2.25h1.125m-1.125 2.25h1.125m0 0h1.125m-1.125-2.25h1.125m-1.125-2.25h1.125m-1.125-2.25h1.125m-1.125-2.25h1.125m0 0h1.125m-1.125 2.25h1.125m-1.125 2.25h1.125m-1.125 2.25h1.125m-1.125 2.25h1.125m0 0h1.125m-1.125-2.25h1.125m-1.125-2.25h1.125m-1.125-2.25h1.125m-1.125-2.25h1.125m0 0h1.125m-1.125 2.25h1.125m-1.125 2.25h1.125m-1.125 2.25h1.125m-1.125 2.25h1.125m0 0h1.125m-1.125-2.25h1.125m-1.125-2.25h1.125m-1.125-2.25h1.125m-1.125-2.25h1.125m0 0H585m-1.125 2.25H585m-1.125 2.25H585m-1.125 2.25H585m-1.125 2.25H585m0 0h1.125m-1.125-2.25h1.125m-1.125-2.25h1.125m-1.125-2.25h1.125m-1.125-2.25h1.125m0 0h1.125m-1.125 2.25h1.125m-1.125 2.25h1.125m-1.125 2.25h1.125m-1.125 2.25h1.125m0 0h1.125m-1.125-2.25h1.125m-1.125-2.25h1.125m-1.125-2.25h1.125m-1.125-2.25h1.125m0 0h1.125m-1.125 2.25h1.125m-1.125 2.25h1.125m-1.125 2.25h1.125m-1.125 2.25h1.125M27 38.813h564.75m-553.5 0h1.125m10.125 0h1.125m10.125 0h1.125m10.125 0h1.125m-46.125 0h1.125m66.375 0h1.125m10.125 0h1.125m10.125 0h1.125m10.125 0h1.125m-46.125 0h1.125m66.375 0h1.125m10.125 0h1.125m10.125 0h1.125m10.125 0h1.125m-46.125 0h1.125m66.375 0h1.125m10.125 0h1.125m10.125 0h1.125m10.125 0h1.125m-46.125 0h1.125m66.375 0h1.125m10.125 0h1.125m10.125 0h1.125m10.125 0h1.125m-46.125 0h1.125m66.375 0h1.125m10.125 0h1.125m10.125 0h1.125m10.125 0h1.125m-46.125 0h1.125m66.375 0h1.125m10.125 0h1.125m10.125 0h1.125m10.125 0h1.125m-46.125 0h1.125m66.375 0h1.125m10.125 0h1.125m10.125 0h1.125m10.125 0h1.125m-46.125 0h1.125m66.375 0h1.125m10.125 0h1.125m10.125 0h1.125m10.125 0h1.125m-46.125 0h1.125m66.375 0h1.125m10.125 0h1.125m10.125 0h1.125m10.125 0h1.125m-46.125 0h1.125M27 38.813h7.875m555.75 0h-7.875m-274.5 0h1.125m-7.875 0h14.625m-232.875 0h1.125m55.125 0h1.125m55.125 0h1.125m55.125 0h1.125m55.125 0h1.125m55.125 0h1.125m55.125 0h1.125m55.125 0h1.125m55.125 0h1.125M27 434.813v-396h429.75m-418.5 0v3.375m11.25-3.375v3.375m11.25-3.375v3.375M72 38.813v3.375m-45-3.375v7.875m67.5-7.875v3.375m11.25-3.375v3.375M117 38.813v3.375m11.25-3.375v3.375m-45-3.375v7.875m67.5-7.875v3.375M162 38.813v3.375m11.25-3.375v3.375m11.25-3.375v3.375m-45-3.375v7.875m67.5-7.875v3.375m11.25-3.375v3.375m11.25-3.375v3.375m11.25-3.375v3.375m-45-3.375v7.875m67.5-7.875v3.375m11.25-3.375v3.375m11.25-3.375v3.375M297 38.813v3.375m-45-3.375v7.875m67.5-7.875v3.375m11.25-3.375v3.375M342 38.813v3.375m11.25-3.375v3.375m-45-3.375v7.875m67.5-7.875v3.375M387 38.813v3.375m11.25-3.375v3.375m11.25-3.375v3.375m-45-3.375v7.875m67.5-7.875v3.375m11.25-3.375v3.375m11.25-3.375v3.375m-33.75-3.375v7.875M27 50.063h3.375M27 61.313h3.375M27 72.563h3.375M27 83.813h3.375m-3.375-45h7.875M27 106.313h3.375M27 117.563h3.375M27 128.813h3.375M27 140.063h3.375m-3.375-45h7.875M27 162.563h3.375M27 173.813h3.375M27 185.063h3.375M27 196.313h3.375m-3.375-45h7.875M27 218.813h3.375M27 230.063h3.375M27 241.313h3.375M27 252.563h3.375m-3.375-45h7.875M27 275.063h3.375M27 286.313h3.375M27 297.563h3.375M27 308.813h3.375m-3.375-45h7.875M27 331.313h3.375M27 342.563h3.375M27 353.813h3.375M27 365.063h3.375m-3.375-45h7.875M27 387.563h3.375M27 398.813h3.375M27 410.063h3.375M27 421.313h3.375m-3.375-45h7.875M27 432.563h7.875M27 263.813h429.75m-148.5-225v396m-270-174.375v7.875m11.25-7.875v7.875m11.25-7.875v7.875M72 260.438v7.875m-45-11.25v14.625m67.5-11.25v7.875m11.25-7.875v7.875m11.25-7.875v7.875m11.25-7.875v7.875m-45-11.25v14.625m67.5-11.25v7.875m11.25-7.875v7.875m11.25-7.875v7.875m11.25-7.875v7.875m-45-11.25v14.625m67.5-11.25v7.875m11.25-7.875v7.875m11.25-7.875v7.875m11.25-7.875v7.875m-45-11.25v14.625m67.5-11.25v7.875m11.25-7.875v7.875m11.25-7.875v7.875m11.25-7.875v7.875m-45-11.25v14.625m67.5-11.25v7.875m11.25-7.875v7.875m11.25-7.875v7.875m11.25-7.875v7.875m-45-11.25v14.625m67.5-11.25v7.875m11.25-7.875v7.875m11.25-7.875v7.875m11.25-7.875v7.875m-45-11.25v14.625m67.5-11.25v7.875m11.25-7.875v7.875m11.25-7.875v7.875m-33.75-11.25v14.625M304.875 50.063h7.875m-7.875 11.25h7.875m-7.875 11.25h7.875m-7.875 11.25h7.875m-11.25-45h14.625m-11.25 67.5h7.875m-7.875 11.25h7.875m-7.875 11.25h7.875m-7.875 11.25h7.875m-11.25-45h14.625m-11.25 67.5h7.875m-7.875 11.25h7.875m-7.875 11.25h7.875m-7.875 11.25h7.875m-11.25-45h14.625m-11.25 67.5h7.875m-7.875 11.25h7.875m-7.875 11.25h7.875m-7.875 11.25h7.875m-11.25-45h14.625m-11.25 67.5h7.875m-7.875 11.25h7.875m-7.875 11.25h7.875m-7.875 11.25h7.875m-11.25-45h14.625m-11.25 67.5h7.875m-7.875 11.25h7.875m-7.875 11.25h7.875m-7.875 11.25h7.875m-11.25-45h14.625m-11.25 67.5h7.875m-7.875 11.25h7.875m-7.875 11.25h7.875m-7.875 11.25h7.875m-11.25-45h14.625m-14.625 56.25h14.625M83.25 38.813v396m56.25-396v396m56.25-396v396m56.25-396v396m56.25-396v396m56.25-396v396m56.25-396v396M27 95.063h429.75M27 151.313h429.75M27 207.563h429.75M27 263.813h429.75M27 320.063h429.75M27 376.313h429.75M27 432.563h429.75M27 489.938v-55.125m563.625 0v55.125H27m11.25 0v-3.375m11.25 3.375v-3.375m11.25 3.375v-3.375M72 489.938v-3.375m-45 3.375v-7.875m67.5 7.875v-3.375m11.25 3.375v-3.375m11.25 3.375v-3.375m11.25 3.375v-3.375m-45 3.375v-7.875m67.5 7.875v-3.375m11.25 3.375v-3.375m11.25 3.375v-3.375m11.25 3.375v-3.375m-45 3.375v-7.875m67.5 7.875v-3.375m11.25 3.375v-3.375m11.25 3.375v-3.375m11.25 3.375v-3.375m-45 3.375v-7.875m67.5 7.875v-3.375m11.25 3.375v-3.375m11.25 3.375v-3.375m11.25 3.375v-3.375m-45 3.375v-7.875m67.5 7.875v-3.375m11.25 3.375v-3.375m11.25 3.375v-3.375m11.25 3.375v-3.375m-45 3.375v-7.875m67.5 7.875v-3.375m11.25 3.375v-3.375m11.25 3.375v-3.375m11.25 3.375v-3.375m-45 3.375v-7.875m67.5 7.875v-3.375m11.25 3.375v-3.375m11.25 3.375v-3.375m11.25 3.375v-3.375m-45 3.375v-7.875m67.5 7.875v-3.375m11.25 3.375v-3.375m11.25 3.375v-3.375m11.25 3.375v-3.375m-45 3.375v-7.875m67.5 7.875v-3.375m11.25 3.375v-3.375m11.25 3.375v-3.375m11.25 3.375v-3.375m-45 3.375v-7.875M27 443.813h3.375M27 455.063h3.375M27 466.313h3.375M27 477.563h3.375m560.25-33.75h-3.375m3.375 11.25h-3.375m3.375 11.25h-3.375m3.375 11.25h-3.375m-279-42.75v55.125m-3.375-46.125h7.875m-7.875 11.25h7.875m-7.875 11.25h7.875m-7.875 11.25h7.875m-229.5-42.75v55.125m56.25-55.125v55.125m56.25-55.125v55.125M252 434.813v55.125m56.25-55.125v55.125m56.25-55.125v55.125m56.25-55.125v55.125M477 434.813v55.125m56.25-55.125v55.125m-76.5-451.125h133.875v396m-124.875-396v3.375m22.5-3.375v3.375m11.25-3.375v3.375m11.25-3.375v3.375M522 38.813v3.375m-45-3.375v7.875m67.5-7.875v3.375m11.25-3.375v3.375M567 38.813v3.375m11.25-3.375v3.375m-45-3.375v7.875m57.375 3.375h-3.375m3.375 11.25h-3.375m3.375 11.25h-3.375m3.375 11.25h-3.375m3.375-45h-7.875m7.875 67.5h-3.375m3.375 11.25h-3.375m3.375 11.25h-3.375m3.375 11.25h-3.375m3.375-45h-7.875m7.875 67.5h-3.375m3.375 11.25h-3.375m3.375 11.25h-3.375m3.375 11.25h-3.375m3.375-45h-7.875m7.875 67.5h-3.375m3.375 11.25h-3.375m3.375 11.25h-3.375m3.375 11.25h-3.375m3.375-45h-7.875m7.875 67.5h-3.375m3.375 11.25h-3.375m3.375 11.25h-3.375m3.375 11.25h-3.375m3.375-45h-7.875m7.875 67.5h-3.375m3.375 11.25h-3.375m3.375 11.25h-3.375m3.375 11.25h-3.375m3.375-45h-7.875m7.875 67.5h-3.375m3.375 11.25h-3.375m3.375 11.25h-3.375m3.375 11.25h-3.375m3.375-45h-7.875m7.875 56.25h-7.875m-126-168.75h133.875m-124.875-3.375v7.875m22.5-7.875v7.875m11.25-7.875v7.875m11.25-7.875v7.875m11.25-7.875v7.875m-45-11.25v14.625m67.5-11.25v7.875m11.25-7.875v7.875m11.25-7.875v7.875m11.25-7.875v7.875m-45-11.25v14.625M477 38.813v396m56.25-396v396m-76.5-339.75h133.875m-133.875 56.25h133.875m-133.875 56.25h133.875m-133.875 56.25h133.875m-133.875 56.25h133.875m-133.875 56.25h133.875m-133.875 56.25h133.875M4.5 12.938V.563m-4.5 0h10.125m1.125 7.875h7.875V5.063L18 3.938l-1.125-1.125H13.5l-2.25 2.25v5.625l2.25 2.25H18l1.125-1.125v-1.125m4.5 2.25V.563m6.75 2.25l-5.625 4.5 6.75 5.625m10.125 0V1.688h5.625l1.125 1.125v2.25l-2.25 2.25h-4.5m4.5 0l3.375 5.625m3.375-9v7.875L54 12.938h1.125l5.625-3.375m0-5.625v9m4.5-9v9m0-5.625l4.5-3.375H72l1.125 1.125v7.875m5.625-9v1.125m0 6.75v1.125M94.5 1.688v11.25M91.125 2.813H94.5m9-1.125l-2.25 2.25v6.75l2.25 2.25h2.25l2.25-2.25v-6.75l-2.25-2.25h-2.25m10.125 10.125v1.125m7.875-11.25l-2.25 2.25v6.75l2.25 2.25h2.25l2.25-2.25v-6.75l-2.25-2.25h-2.25m9 11.25V1.688l5.625 10.125 5.625-10.125v11.25M153 2.813l-1.125-1.125h-4.5l-1.125 1.125v2.25L153 8.438v3.375l-1.125 1.125h-4.5l-1.125-1.125m16.875-10.125l-6.75 11.25m15.75-7.875L171 3.938h-3.375L166.5 5.063v2.25l5.625 2.25v2.25L171 12.938h-3.375l-1.125-1.125m43.875-9l-1.125-1.125h-4.5l-1.125 1.125v2.25l6.75 3.375v3.375l-1.125 1.125h-4.5l-1.125-1.125m15.75-3.375h-4.5l-1.125 1.125v2.25l1.125 1.125h2.25l2.25-1.125m-5.625-6.75l1.125-1.125h3.375l1.125 1.125v7.875h1.125m3.375-9v9m0-5.625l4.5-3.375h1.125v9m0-5.625l4.5-3.375h1.125l1.125 1.125v7.875m4.5-9v12.375m0-9l3.375-3.375h2.25l2.25 2.25v4.5l-2.25 2.25h-5.625M254.25.563v12.375m3.375-4.5h6.75V5.063l-1.125-1.125h-3.375l-2.25 2.25v4.5l2.25 2.25h3.375l1.125-1.125M41.625 492.188l-1.125-1.125H36l-2.25 1.125-1.125 2.25v4.5l1.125 2.25 2.25 1.125h4.5l1.125-1.125M45 489.938v12.375m0-5.625l4.5-3.375h2.25l1.125 1.125v7.875m9-11.25v11.25M58.5 492.188h3.375m30.375 0l1.125-1.125h4.5L99 492.188v3.375l-6.75 5.625v1.125H99m5.625-1.125v1.125m7.875-11.25l-2.25 2.25v6.75l2.25 2.25h2.25l2.25-2.25v-6.75l-2.25-2.25h-2.25m11.25 0l-2.25 2.25v6.75l2.25 2.25H126l2.25-2.25v-6.75l-2.25-2.25h-2.25m13.5 0l4.5 11.25 4.5-11.25m220.5 0H360v4.5h4.5l2.25 2.25v3.375l-1.125 1.125h-4.5L360 501.188m12.375 0v1.125m7.875-11.25l-2.25 2.25v6.75l2.25 2.25h2.25l2.25-2.25v-6.75l-2.25-2.25h-2.25m11.25 0l-2.25 2.25v6.75l2.25 2.25h2.25l2.25-2.25v-6.75l-2.25-2.25h-2.25m7.875 14.625l1.125-2.25v-10.125l2.25 6.75 1.125 2.25h2.25l1.125-2.25 1.125-6.75v7.875l1.125 1.125m9-7.875l-1.125-1.125H414l-1.125 1.125v2.25l5.625 2.25v2.25l-1.125 1.125H414l-1.125-1.125m-73.125 1.125v-11.25l5.625 10.125L351 491.063v11.25m127.125 0h4.5l3.375-11.25h4.5m42.75 0v11.25m-3.375-10.125h3.375m7.875 9v1.125m5.625-1.125l1.125 1.125h3.375l2.25-2.25v-6.75l-2.25-2.25H549l-2.25 2.25v3.375l2.25 2.25h1.125l3.375-2.25m11.25-4.5l-1.125-1.125h-3.375l-2.25 2.25v6.75l2.25 2.25h2.25l2.25-2.25v-3.375l-2.25-2.25h-1.125l-3.375 2.25m15.75-5.625l4.5 11.25 4.5-11.25m-137.25 1.125l-1.125-1.125h-4.5l-2.25 1.125-1.125 2.25v4.5l1.125 2.25 2.25 1.125h4.5l1.125-1.125m3.375-11.25v12.375m0-5.625l4.5-3.375h2.25l1.125 1.125v7.875m9-11.25v11.25m-3.375-10.125h3.375m-297-473.625v13.5m0-6.75H450m0-6.75v13.5M303.75 159.188h9m-4.5 0v11.25M10.125 263.813v11.25M6.75 264.938h3.375m11.25 4.5v3.375l3.375-3.375-3.375-3.375v3.375H15.75"/><path d="M582.75 214.313v5.625l-5.625-5.625 5.625-5.625v5.625h5.625m-283.5-195.75h9m-4.5 0v11.25m-139.5-12.375H166.5v14.625h3.375m276.75-14.625H450v14.625h-3.375"/></g></svg>